<?xml version="1.0" encoding="UTF-8" standalone="no"?>
<!DOCTYPE svg PUBLIC "-//W3C//DTD SVG 1.1//EN"
 "http://www.w3.org/Graphics/SVG/1.1/DTD/svg11.dtd">
<!-- Generated by graphviz version 12.2.1 (0)
 -->
<!-- Title: QuantraCoreApex_Ecosystem Pages: 1 -->
<svg width="3145pt" height="295pt"
 viewBox="0.00 0.00 3145.11 295.25" xmlns="http://www.w3.org/2000/svg" xmlns:xlink="http://www.w3.org/1999/xlink">
<g id="graph0" class="graph" transform="scale(1 1) rotate(0) translate(4 291.25)">
<title>QuantraCoreApex_Ecosystem</title>
<polygon fill="white" stroke="none" points="-4,4 -4,-291.25 3141.11,-291.25 3141.11,4 -4,4"/>
<!-- market_data -->
<g id="node1" class="node">
<title>market_data</title>
<polygon fill="#0b1220" stroke="#4b5563" stroke-width="1.2" points="142.75,-207.25 0,-207.25 0,-203.25 -4,-203.25 -4,-199.25 0,-199.25 0,-172.75 -4,-172.75 -4,-168.75 0,-168.75 0,-164.75 142.75,-164.75 142.75,-207.25"/>
<polyline fill="none" stroke="#4b5563" stroke-width="1.2" points="0,-203.25 4,-203.25 4,-199.25 0,-199.25"/>
<polyline fill="none" stroke="#4b5563" stroke-width="1.2" points="0,-172.75 4,-172.75 4,-168.75 0,-168.75"/>
<text text-anchor="middle" x="71.38" y="-189.95" font-family="Times,serif" font-size="14.00" fill="#e5e7eb">Market Data APIs</text>
<text text-anchor="middle" x="71.38" y="-172.7" font-family="Times,serif" font-size="14.00" fill="#e5e7eb">(Polygon, etc.)</text>
</g>
<!-- apexfeed -->
<g id="node4" class="node">
<title>apexfeed</title>
<path fill="#0b1220" stroke="#4b5563" stroke-width="1.2" d="M405.5,-207.25C405.5,-207.25 274.75,-207.25 274.75,-207.25 268.75,-207.25 262.75,-201.25 262.75,-195.25 262.75,-195.25 262.75,-176.75 262.75,-176.75 262.75,-170.75 268.75,-164.75 274.75,-164.75 274.75,-164.75 405.5,-164.75 405.5,-164.75 411.5,-164.75 417.5,-170.75 417.5,-176.75 417.5,-176.75 417.5,-195.25 417.5,-195.25 417.5,-201.25 411.5,-207.25 405.5,-207.25"/>
<text text-anchor="middle" x="340.12" y="-189.95" font-family="Times,serif" font-size="14.00" fill="#e5e7eb">ApexFeed</text>
<text text-anchor="middle" x="340.12" y="-172.7" font-family="Times,serif" font-size="14.00" fill="#e5e7eb">(Data Ingest Layer)</text>
</g>
<!-- market_data&#45;&gt;apexfeed -->
<g id="edge1" class="edge">
<title>market_data&#45;&gt;apexfeed</title>
<path fill="none" stroke="#6b7280" d="M143.04,-186C143.04,-186 253.01,-186 253.01,-186"/>
<polygon fill="#6b7280" stroke="#6b7280" points="253.01,-188.8 261.01,-186 253.01,-183.2 253.01,-188.8"/>
<text text-anchor="middle" x="202.75" y="-189.95" font-family="Times,serif" font-size="14.00">raw OHLCV</text>
</g>
<!-- user_research -->
<g id="node2" class="node">
<title>user_research</title>
<ellipse fill="#0b1220" stroke="#4b5563" stroke-width="1.2" cx="2690.43" cy="-237" rx="105.18" ry="30.05"/>
<text text-anchor="middle" x="2690.43" y="-240.95" font-family="Times,serif" font-size="14.00" fill="#e5e7eb">Research / Analyst</text>
<text text-anchor="middle" x="2690.43" y="-223.7" font-family="Times,serif" font-size="14.00" fill="#e5e7eb">(Desktop)</text>
</g>
<!-- broker -->
<g id="node14" class="node">
<title>broker</title>
<path fill="#0b1220" stroke="#4b5563" stroke-width="1.2" d="M3125.11,-216.25C3125.11,-216.25 2968.11,-216.25 2968.11,-216.25 2962.11,-216.25 2956.11,-210.25 2956.11,-204.25 2956.11,-204.25 2956.11,-185.75 2956.11,-185.75 2956.11,-179.75 2962.11,-173.75 2968.11,-173.75 2968.11,-173.75 3125.11,-173.75 3125.11,-173.75 3131.11,-173.75 3137.11,-179.75 3137.11,-185.75 3137.11,-185.75 3137.11,-204.25 3137.11,-204.25 3137.11,-210.25 3131.11,-216.25 3125.11,-216.25"/>
<text text-anchor="middle" x="3046.61" y="-198.95" font-family="Times,serif" font-size="14.00" fill="#e5e7eb">Broker Layer</text>
<text text-anchor="middle" x="3046.61" y="-181.7" font-family="Times,serif" font-size="14.00" fill="#e5e7eb">(Paper / Live, Optional)</text>
</g>
<!-- user_research&#45;&gt;broker -->
<g id="edge19" class="edge">
<title>user_research&#45;&gt;broker</title>
<path fill="none" stroke="#6b7280" stroke-dasharray="1,5" d="M2748.85,-211.6C2748.85,-211.6 2946.23,-211.6 2946.23,-211.6"/>
<polygon fill="#6b7280" stroke="#6b7280" points="2946.23,-214.4 2954.23,-211.6 2946.23,-208.8 2946.23,-214.4"/>
<text text-anchor="middle" x="2875.86" y="-227.95" font-family="Times,serif" font-size="14.00">manual oversight</text>
</g>
<!-- retail_user -->
<g id="node3" class="node">
<title>retail_user</title>
<ellipse fill="#0b1220" stroke="#4b5563" stroke-width="1.2" cx="2690.43" cy="-121" rx="68.59" ry="30.05"/>
<text text-anchor="middle" x="2690.43" y="-124.95" font-family="Times,serif" font-size="14.00" fill="#e5e7eb">Retail User</text>
<text text-anchor="middle" x="2690.43" y="-107.7" font-family="Times,serif" font-size="14.00" fill="#e5e7eb">(Android)</text>
</g>
<!-- scanner -->
<g id="node5" class="node">
<title>scanner</title>
<path fill="#0b1220" stroke="#4b5563" stroke-width="1.2" d="M728.25,-207.25C728.25,-207.25 581,-207.25 581,-207.25 575,-207.25 569,-201.25 569,-195.25 569,-195.25 569,-176.75 569,-176.75 569,-170.75 575,-164.75 581,-164.75 581,-164.75 728.25,-164.75 728.25,-164.75 734.25,-164.75 740.25,-170.75 740.25,-176.75 740.25,-176.75 740.25,-195.25 740.25,-195.25 740.25,-201.25 734.25,-207.25 728.25,-207.25"/>
<text text-anchor="middle" x="654.62" y="-189.95" font-family="Times,serif" font-size="14.00" fill="#e5e7eb">Scanner</text>
<text text-anchor="middle" x="654.62" y="-172.7" font-family="Times,serif" font-size="14.00" fill="#e5e7eb">(Full Market / Modes)</text>
</g>
<!-- apexfeed&#45;&gt;scanner -->
<g id="edge2" class="edge">
<title>apexfeed&#45;&gt;scanner</title>
<path fill="none" stroke="#6b7280" d="M417.87,-186C417.87,-186 559.14,-186 559.14,-186"/>
<polygon fill="#6b7280" stroke="#6b7280" points="559.14,-188.8 567.14,-186 559.14,-183.2 559.14,-188.8"/>
<text text-anchor="middle" x="493.25" y="-189.95" font-family="Times,serif" font-size="14.00">normalized bars</text>
</g>
<!-- engine -->
<g id="node6" class="node">
<title>engine</title>
<path fill="#0b1220" stroke="#4b5563" stroke-width="1.2" d="M982.75,-207.25C982.75,-207.25 838.5,-207.25 838.5,-207.25 832.5,-207.25 826.5,-201.25 826.5,-195.25 826.5,-195.25 826.5,-176.75 826.5,-176.75 826.5,-170.75 832.5,-164.75 838.5,-164.75 838.5,-164.75 982.75,-164.75 982.75,-164.75 988.75,-164.75 994.75,-170.75 994.75,-176.75 994.75,-176.75 994.75,-195.25 994.75,-195.25 994.75,-201.25 988.75,-207.25 982.75,-207.25"/>
<text text-anchor="middle" x="910.62" y="-189.95" font-family="Times,serif" font-size="14.00" fill="#e5e7eb">Deterministic Engine</text>
<text text-anchor="middle" x="910.62" y="-172.7" font-family="Times,serif" font-size="14.00" fill="#e5e7eb">(QuantraCore Apex)</text>
</g>
<!-- scanner&#45;&gt;engine -->
<g id="edge3" class="edge">
<title>scanner&#45;&gt;engine</title>
<path fill="none" stroke="#6b7280" d="M740.58,-186C740.58,-186 816.69,-186 816.69,-186"/>
<polygon fill="#6b7280" stroke="#6b7280" points="816.69,-188.8 824.69,-186 816.69,-183.2 816.69,-188.8"/>
<text text-anchor="middle" x="783.38" y="-189.95" font-family="Times,serif" font-size="14.00">signals</text>
</g>
<!-- monster -->
<g id="node7" class="node">
<title>monster</title>
<path fill="#0b1220" stroke="#4b5563" stroke-width="1.2" d="M1466.25,-251.25C1466.25,-251.25 1361.75,-251.25 1361.75,-251.25 1355.75,-251.25 1349.75,-245.25 1349.75,-239.25 1349.75,-239.25 1349.75,-220.75 1349.75,-220.75 1349.75,-214.75 1355.75,-208.75 1361.75,-208.75 1361.75,-208.75 1466.25,-208.75 1466.25,-208.75 1472.25,-208.75 1478.25,-214.75 1478.25,-220.75 1478.25,-220.75 1478.25,-239.25 1478.25,-239.25 1478.25,-245.25 1472.25,-251.25 1466.25,-251.25"/>
<text text-anchor="middle" x="1414" y="-233.95" font-family="Times,serif" font-size="14.00" fill="#e5e7eb">MonsterRunner</text>
<text text-anchor="middle" x="1414" y="-216.7" font-family="Times,serif" font-size="14.00" fill="#e5e7eb">&amp; Runner Logic</text>
</g>
<!-- engine&#45;&gt;monster -->
<g id="edge4" class="edge">
<title>engine&#45;&gt;monster</title>
<path fill="none" stroke="#6b7280" d="M995.18,-191.75C1138.59,-191.75 1414.11,-191.75 1414.11,-191.75 1414.11,-191.75 1414.11,-199.12 1414.11,-199.12"/>
<polygon fill="#6b7280" stroke="#6b7280" points="1411.31,-199.12 1414.11,-207.12 1416.91,-199.12 1411.31,-199.12"/>
<text text-anchor="middle" x="1077.25" y="-230.95" font-family="Times,serif" font-size="14.00">structural context</text>
</g>
<!-- apexlab -->
<g id="node8" class="node">
<title>apexlab</title>
<path fill="#0b1220" stroke="#4b5563" stroke-width="1.2" d="M1319.75,-154.25C1319.75,-154.25 1171.75,-154.25 1171.75,-154.25 1165.75,-154.25 1159.75,-148.25 1159.75,-142.25 1159.75,-142.25 1159.75,-123.75 1159.75,-123.75 1159.75,-117.75 1165.75,-111.75 1171.75,-111.75 1171.75,-111.75 1319.75,-111.75 1319.75,-111.75 1325.75,-111.75 1331.75,-117.75 1331.75,-123.75 1331.75,-123.75 1331.75,-142.25 1331.75,-142.25 1331.75,-148.25 1325.75,-154.25 1319.75,-154.25"/>
<text text-anchor="middle" x="1245.75" y="-136.95" font-family="Times,serif" font-size="14.00" fill="#e5e7eb">ApexLab v2</text>
<text text-anchor="middle" x="1245.75" y="-119.7" font-family="Times,serif" font-size="14.00" fill="#e5e7eb">(Labeling + Datasets)</text>
</g>
<!-- engine&#45;&gt;apexlab -->
<g id="edge5" class="edge">
<title>engine&#45;&gt;apexlab</title>
<path fill="none" stroke="#6b7280" d="M868.11,-164.44C868.11,-149.77 868.11,-133 868.11,-133 868.11,-133 1150.07,-133 1150.07,-133"/>
<polygon fill="#6b7280" stroke="#6b7280" points="1150.07,-135.8 1158.07,-133 1150.07,-130.2 1150.07,-135.8"/>
<text text-anchor="middle" x="1077.25" y="-147.95" font-family="Times,serif" font-size="14.00">teacher labels</text>
</g>
<!-- pred_advisor -->
<g id="node11" class="node">
<title>pred_advisor</title>
<path fill="#0b1220" stroke="#4b5563" stroke-width="1.2" d="M1970,-205.25C1970,-205.25 1850.5,-205.25 1850.5,-205.25 1844.5,-205.25 1838.5,-199.25 1838.5,-193.25 1838.5,-193.25 1838.5,-174.75 1838.5,-174.75 1838.5,-168.75 1844.5,-162.75 1850.5,-162.75 1850.5,-162.75 1970,-162.75 1970,-162.75 1976,-162.75 1982,-168.75 1982,-174.75 1982,-174.75 1982,-193.25 1982,-193.25 1982,-199.25 1976,-205.25 1970,-205.25"/>
<text text-anchor="middle" x="1910.25" y="-187.95" font-family="Times,serif" font-size="14.00" fill="#e5e7eb">PredictiveAdvisor</text>
<text text-anchor="middle" x="1910.25" y="-170.7" font-family="Times,serif" font-size="14.00" fill="#e5e7eb">(Ranker / Triager)</text>
</g>
<!-- engine&#45;&gt;pred_advisor -->
<g id="edge8" class="edge">
<title>engine&#45;&gt;pred_advisor</title>
<path fill="none" stroke="#6b7280" d="M994.99,-178.25C994.99,-178.25 1828.55,-178.25 1828.55,-178.25"/>
<polygon fill="#6b7280" stroke="#6b7280" points="1828.55,-181.05 1836.55,-178.25 1828.55,-175.45 1828.55,-181.05"/>
<text text-anchor="middle" x="1414" y="-189.95" font-family="Times,serif" font-size="14.00">top&#45;N candidates</text>
</g>
<!-- apexdesk -->
<g id="node12" class="node">
<title>apexdesk</title>
<path fill="#0b1220" stroke="#4b5563" stroke-width="1.2" d="M2388.75,-258.25C2388.75,-258.25 2231,-258.25 2231,-258.25 2225,-258.25 2219,-252.25 2219,-246.25 2219,-246.25 2219,-227.75 2219,-227.75 2219,-221.75 2225,-215.75 2231,-215.75 2231,-215.75 2388.75,-215.75 2388.75,-215.75 2394.75,-215.75 2400.75,-221.75 2400.75,-227.75 2400.75,-227.75 2400.75,-246.25 2400.75,-246.25 2400.75,-252.25 2394.75,-258.25 2388.75,-258.25"/>
<text text-anchor="middle" x="2309.88" y="-240.95" font-family="Times,serif" font-size="14.00" fill="#e5e7eb">ApexDesk UI</text>
<text text-anchor="middle" x="2309.88" y="-223.7" font-family="Times,serif" font-size="14.00" fill="#e5e7eb">(React/Vite Dashboard)</text>
</g>
<!-- engine&#45;&gt;apexdesk -->
<g id="edge10" class="edge">
<title>engine&#45;&gt;apexdesk</title>
<path fill="none" stroke="#6b7280" d="M911.11,-207.38C911.11,-227.56 911.11,-254.75 911.11,-254.75 911.11,-254.75 2209.12,-254.75 2209.12,-254.75"/>
<polygon fill="#6b7280" stroke="#6b7280" points="2209.12,-257.55 2217.12,-254.75 2209.12,-251.95 2209.12,-257.55"/>
<text text-anchor="middle" x="1593.88" y="-273.95" font-family="Times,serif" font-size="14.00">scores + traces</text>
</g>
<!-- qvision -->
<g id="node13" class="node">
<title>qvision</title>
<path fill="#0b1220" stroke="#4b5563" stroke-width="1.2" d="M2406,-141.25C2406,-141.25 2213.75,-141.25 2213.75,-141.25 2207.75,-141.25 2201.75,-135.25 2201.75,-129.25 2201.75,-129.25 2201.75,-110.75 2201.75,-110.75 2201.75,-104.75 2207.75,-98.75 2213.75,-98.75 2213.75,-98.75 2406,-98.75 2406,-98.75 2412,-98.75 2418,-104.75 2418,-110.75 2418,-110.75 2418,-129.25 2418,-129.25 2418,-135.25 2412,-141.25 2406,-141.25"/>
<text text-anchor="middle" x="2309.88" y="-123.95" font-family="Times,serif" font-size="14.00" fill="#e5e7eb">QuantraVision Apex</text>
<text text-anchor="middle" x="2309.88" y="-106.7" font-family="Times,serif" font-size="14.00" fill="#e5e7eb">(Android Structural Copilot)</text>
</g>
<!-- engine&#45;&gt;qvision -->
<g id="edge14" class="edge">
<title>engine&#45;&gt;qvision</title>
<path fill="none" stroke="#6b7280" d="M911.11,-164.38C911.11,-160.2 911.11,-157.08 911.11,-157.08 911.11,-157.08 2210.11,-157.08 2210.11,-157.08 2210.11,-157.08 2210.11,-151.09 2210.11,-151.09"/>
<polygon fill="#6b7280" stroke="#6b7280" points="2212.91,-151.09 2210.11,-143.09 2207.31,-151.09 2212.91,-151.09"/>
<text text-anchor="middle" x="1593.88" y="-21.2" font-family="Times,serif" font-size="14.00">structural logic</text>
<text text-anchor="middle" x="1593.88" y="-3.95" font-family="Times,serif" font-size="14.00">(ApexLite / Mini)</text>
</g>
<!-- engine&#45;&gt;broker -->
<g id="edge17" class="edge">
<title>engine&#45;&gt;broker</title>
<path fill="none" stroke="#6b7280" d="M953.11,-164.46C953.11,-161.76 953.11,-159.92 953.11,-159.92 953.11,-159.92 3046.11,-159.92 3046.11,-159.92 3046.11,-159.92 3046.11,-163.87 3046.11,-163.87"/>
<polygon fill="#6b7280" stroke="#6b7280" points="3043.31,-163.87 3046.11,-171.87 3048.91,-163.87 3043.31,-163.87"/>
<text text-anchor="middle" x="1910.25" y="-66.95" font-family="Times,serif" font-size="14.00">paper/live envelope</text>
</g>
<!-- monster&#45;&gt;apexdesk -->
<g id="edge11" class="edge">
<title>monster&#45;&gt;apexdesk</title>
<path fill="none" stroke="#6b7280" d="M1478.43,-239.42C1478.43,-239.42 2209.28,-239.42 2209.28,-239.42"/>
<polygon fill="#6b7280" stroke="#6b7280" points="2209.28,-242.22 2217.28,-239.42 2209.28,-236.62 2209.28,-242.22"/>
<text text-anchor="middle" x="1765" y="-227.95" font-family="Times,serif" font-size="14.00">runner metrics</text>
</g>
<!-- apexcore_big -->
<g id="node9" class="node">
<title>apexcore_big</title>
<path fill="#0b1220" stroke="#4b5563" stroke-width="1.2" d="M1679.5,-149.25C1679.5,-149.25 1508.25,-149.25 1508.25,-149.25 1502.25,-149.25 1496.25,-143.25 1496.25,-137.25 1496.25,-137.25 1496.25,-118.75 1496.25,-118.75 1496.25,-112.75 1502.25,-106.75 1508.25,-106.75 1508.25,-106.75 1679.5,-106.75 1679.5,-106.75 1685.5,-106.75 1691.5,-112.75 1691.5,-118.75 1691.5,-118.75 1691.5,-137.25 1691.5,-137.25 1691.5,-143.25 1685.5,-149.25 1679.5,-149.25"/>
<text text-anchor="middle" x="1593.88" y="-131.95" font-family="Times,serif" font-size="14.00" fill="#e5e7eb">ApexCore v2 Big</text>
<text text-anchor="middle" x="1593.88" y="-114.7" font-family="Times,serif" font-size="14.00" fill="#e5e7eb">(Desktop / Server Model)</text>
</g>
<!-- apexlab&#45;&gt;apexcore_big -->
<g id="edge6" class="edge">
<title>apexlab&#45;&gt;apexcore_big</title>
<path fill="none" stroke="#6b7280" d="M1331.8,-130.5C1331.8,-130.5 1486.39,-130.5 1486.39,-130.5"/>
<polygon fill="#6b7280" stroke="#6b7280" points="1486.39,-133.3 1494.39,-130.5 1486.39,-127.7 1486.39,-133.3"/>
<text text-anchor="middle" x="1414" y="-149.2" font-family="Times,serif" font-size="14.00">train</text>
<text text-anchor="middle" x="1414" y="-131.95" font-family="Times,serif" font-size="14.00">ApexCore v2 Big</text>
</g>
<!-- apexcore_mini -->
<g id="node10" class="node">
<title>apexcore_mini</title>
<path fill="#0b1220" stroke="#4b5563" stroke-width="1.2" d="M1970,-141.25C1970,-141.25 1850.5,-141.25 1850.5,-141.25 1844.5,-141.25 1838.5,-135.25 1838.5,-129.25 1838.5,-129.25 1838.5,-110.75 1838.5,-110.75 1838.5,-104.75 1844.5,-98.75 1850.5,-98.75 1850.5,-98.75 1970,-98.75 1970,-98.75 1976,-98.75 1982,-104.75 1982,-110.75 1982,-110.75 1982,-129.25 1982,-129.25 1982,-135.25 1976,-141.25 1970,-141.25"/>
<text text-anchor="middle" x="1910.25" y="-123.95" font-family="Times,serif" font-size="14.00" fill="#e5e7eb">ApexCore v2 Mini</text>
<text text-anchor="middle" x="1910.25" y="-106.7" font-family="Times,serif" font-size="14.00" fill="#e5e7eb">(Mobile Model)</text>
</g>
<!-- apexcore_big&#45;&gt;apexcore_mini -->
<g id="edge7" class="edge">
<title>apexcore_big&#45;&gt;apexcore_mini</title>
<path fill="none" stroke="#6b7280" d="M1691.81,-124C1691.81,-124 1828.87,-124 1828.87,-124"/>
<polygon fill="#6b7280" stroke="#6b7280" points="1828.87,-126.8 1836.87,-124 1828.87,-121.2 1828.87,-126.8"/>
<text text-anchor="middle" x="1765" y="-117.2" font-family="Times,serif" font-size="14.00">distill</text>
<text text-anchor="middle" x="1765" y="-99.95" font-family="Times,serif" font-size="14.00">Mini</text>
</g>
<!-- apexcore_big&#45;&gt;pred_advisor -->
<g id="edge9" class="edge">
<title>apexcore_big&#45;&gt;pred_advisor</title>
<path fill="none" stroke="#6b7280" d="M1691.77,-145.25C1784.65,-145.25 1910.11,-145.25 1910.11,-145.25 1910.11,-145.25 1910.11,-152.85 1910.11,-152.85"/>
<polygon fill="#6b7280" stroke="#6b7280" points="1907.31,-152.85 1910.11,-160.85 1912.91,-152.85 1907.31,-152.85"/>
<text text-anchor="middle" x="1765" y="-157.95" font-family="Times,serif" font-size="14.00">ranker features</text>
</g>
<!-- apexcore_mini&#45;&gt;qvision -->
<g id="edge15" class="edge">
<title>apexcore_mini&#45;&gt;qvision</title>
<path fill="none" stroke="#6b7280" d="M1982.16,-120C1982.16,-120 2191.75,-120 2191.75,-120"/>
<polygon fill="#6b7280" stroke="#6b7280" points="2191.75,-122.8 2199.75,-120 2191.75,-117.2 2191.75,-122.8"/>
<text text-anchor="middle" x="2091.88" y="-123.95" font-family="Times,serif" font-size="14.00">on&#45;device structural hints</text>
</g>
<!-- pred_advisor&#45;&gt;apexdesk -->
<g id="edge12" class="edge">
<title>pred_advisor&#45;&gt;apexdesk</title>
<path fill="none" stroke="#6b7280" d="M1910.11,-205.54C1910.11,-216.52 1910.11,-227.58 1910.11,-227.58 1910.11,-227.58 2209.15,-227.58 2209.15,-227.58"/>
<polygon fill="#6b7280" stroke="#6b7280" points="2209.15,-230.38 2217.15,-227.58 2209.15,-224.78 2209.15,-230.38"/>
<text text-anchor="middle" x="2091.88" y="-221.95" font-family="Times,serif" font-size="14.00">advisory overlays</text>
</g>
<!-- pred_advisor&#45;&gt;broker -->
<g id="edge18" class="edge">
<title>pred_advisor&#45;&gt;broker</title>
<path fill="none" stroke="#6b7280" stroke-dasharray="5,2" d="M1982.2,-189.5C1982.2,-189.5 2946.22,-189.5 2946.22,-189.5"/>
<polygon fill="#6b7280" stroke="#6b7280" points="2946.22,-192.3 2954.22,-189.5 2946.22,-186.7 2946.22,-192.3"/>
<text text-anchor="middle" x="2501.62" y="-182.95" font-family="Times,serif" font-size="14.00">ranked candidates</text>
</g>
<!-- apexdesk&#45;&gt;user_research -->
<g id="edge13" class="edge">
<title>apexdesk&#45;&gt;user_research</title>
<path fill="none" stroke="#6b7280" d="M2401.03,-237C2401.03,-237 2575.35,-237 2575.35,-237"/>
<polygon fill="#6b7280" stroke="#6b7280" points="2575.35,-239.8 2583.35,-237 2575.35,-234.2 2575.35,-239.8"/>
<text text-anchor="middle" x="2501.62" y="-240.95" font-family="Times,serif" font-size="14.00">research view</text>
</g>
<!-- qvision&#45;&gt;retail_user -->
<g id="edge16" class="edge">
<title>qvision&#45;&gt;retail_user</title>
<path fill="none" stroke="#6b7280" d="M2418.42,-120C2418.42,-120 2612.11,-120 2612.11,-120"/>
<polygon fill="#6b7280" stroke="#6b7280" points="2612.11,-122.8 2620.11,-120 2612.11,-117.2 2612.11,-122.8"/>
<text text-anchor="middle" x="2501.62" y="-124.95" font-family="Times,serif" font-size="14.00">overlays + HUD</text>
</g>
</g>
</svg>
