<?xml version="1.0" encoding="UTF-8" standalone="no"?>
<!DOCTYPE svg PUBLIC "-//W3C//DTD SVG 1.1//EN"
 "http://www.w3.org/Graphics/SVG/1.1/DTD/svg11.dtd">
<!-- Generated by graphviz version 12.2.1 (0)
 -->
<!-- Title: Apex_Pipeline Pages: 1 -->
<svg width="1799pt" height="133pt"
 viewBox="0.00 0.00 1798.75 133.12" xmlns="http://www.w3.org/2000/svg" xmlns:xlink="http://www.w3.org/1999/xlink">
<g id="graph0" class="graph" transform="scale(1 1) rotate(0) translate(4 129.12)">
<title>Apex_Pipeline</title>
<polygon fill="white" stroke="none" points="-4,4 -4,-129.12 1794.75,-129.12 1794.75,4 -4,4"/>
<!-- data -->
<g id="node1" class="node">
<title>data</title>
<path fill="#0b1220" stroke="#4b5563" stroke-width="1.2" d="M94,-51.12C94,-51.12 12,-51.12 12,-51.12 6,-51.12 0,-45.12 0,-39.12 0,-39.12 0,-20.62 0,-20.62 0,-14.62 6,-8.62 12,-8.62 12,-8.62 94,-8.62 94,-8.62 100,-8.62 106,-14.62 106,-20.62 106,-20.62 106,-39.12 106,-39.12 106,-45.12 100,-51.12 94,-51.12"/>
<text text-anchor="middle" x="53" y="-33.83" font-family="Times,serif" font-size="14.00" fill="#e5e7eb">Market Data</text>
<text text-anchor="middle" x="53" y="-16.57" font-family="Times,serif" font-size="14.00" fill="#e5e7eb">(ApexFeed)</text>
</g>
<!-- scanner -->
<g id="node2" class="node">
<title>scanner</title>
<path fill="#0b1220" stroke="#4b5563" stroke-width="1.2" d="M205.5,-47.88C205.5,-47.88 155,-47.88 155,-47.88 149,-47.88 143,-41.88 143,-35.88 143,-35.88 143,-23.87 143,-23.87 143,-17.88 149,-11.88 155,-11.88 155,-11.88 205.5,-11.88 205.5,-11.88 211.5,-11.88 217.5,-17.88 217.5,-23.88 217.5,-23.88 217.5,-35.88 217.5,-35.88 217.5,-41.88 211.5,-47.88 205.5,-47.88"/>
<text text-anchor="middle" x="180.25" y="-25.2" font-family="Times,serif" font-size="14.00" fill="#e5e7eb">Scanner</text>
</g>
<!-- data&#45;&gt;scanner -->
<g id="edge1" class="edge">
<title>data&#45;&gt;scanner</title>
<path fill="none" stroke="#6b7280" d="M106.23,-29.88C106.23,-29.88 133.19,-29.88 133.19,-29.88"/>
<polygon fill="#6b7280" stroke="#6b7280" points="133.19,-32.68 141.19,-29.88 133.19,-27.08 133.19,-32.68"/>
</g>
<!-- engine -->
<g id="node3" class="node">
<title>engine</title>
<path fill="#0b1220" stroke="#4b5563" stroke-width="1.2" d="M410.75,-59.75C410.75,-59.75 266.5,-59.75 266.5,-59.75 260.5,-59.75 254.5,-53.75 254.5,-47.75 254.5,-47.75 254.5,-12 254.5,-12 254.5,-6 260.5,0 266.5,0 266.5,0 410.75,0 410.75,0 416.75,0 422.75,-6 422.75,-12 422.75,-12 422.75,-47.75 422.75,-47.75 422.75,-53.75 416.75,-59.75 410.75,-59.75"/>
<text text-anchor="middle" x="338.62" y="-42.45" font-family="Times,serif" font-size="14.00" fill="#e5e7eb">Deterministic Engine</text>
<text text-anchor="middle" x="338.62" y="-25.2" font-family="Times,serif" font-size="14.00" fill="#e5e7eb">(Tier T01–T80,</text>
<text text-anchor="middle" x="338.62" y="-7.95" font-family="Times,serif" font-size="14.00" fill="#e5e7eb">LP01–LP25, Ω)</text>
</g>
<!-- scanner&#45;&gt;engine -->
<g id="edge2" class="edge">
<title>scanner&#45;&gt;engine</title>
<path fill="none" stroke="#6b7280" d="M217.78,-29.88C217.78,-29.88 244.69,-29.88 244.69,-29.88"/>
<polygon fill="#6b7280" stroke="#6b7280" points="244.69,-32.68 252.69,-29.88 244.69,-27.08 244.69,-32.68"/>
</g>
<!-- labels -->
<g id="node4" class="node">
<title>labels</title>
<path fill="#0b1220" stroke="#4b5563" stroke-width="1.2" d="M622,-100.12C622,-100.12 471.75,-100.12 471.75,-100.12 465.75,-100.12 459.75,-94.12 459.75,-88.12 459.75,-88.12 459.75,-69.62 459.75,-69.62 459.75,-63.62 465.75,-57.62 471.75,-57.62 471.75,-57.62 622,-57.62 622,-57.62 628,-57.62 634,-63.62 634,-69.62 634,-69.62 634,-88.12 634,-88.12 634,-94.12 628,-100.12 622,-100.12"/>
<text text-anchor="middle" x="546.88" y="-82.83" font-family="Times,serif" font-size="14.00" fill="#e5e7eb">Teacher Labels</text>
<text text-anchor="middle" x="546.88" y="-65.58" font-family="Times,serif" font-size="14.00" fill="#e5e7eb">&amp; Structural Features</text>
</g>
<!-- engine&#45;&gt;labels -->
<g id="edge3" class="edge">
<title>engine&#45;&gt;labels</title>
<path fill="none" stroke="#6b7280" d="M422.98,-46.62C480.67,-46.62 546.75,-46.62 546.75,-46.62 546.75,-46.62 546.75,-47.68 546.75,-47.68"/>
<polygon fill="#6b7280" stroke="#6b7280" points="543.95,-47.67 546.75,-55.67 549.55,-47.67 543.95,-47.67"/>
</g>
<!-- advisor -->
<g id="node9" class="node">
<title>advisor</title>
<path fill="#0b1220" stroke="#4b5563" stroke-width="1.2" d="M1587.75,-67.12C1587.75,-67.12 1468.25,-67.12 1468.25,-67.12 1462.25,-67.12 1456.25,-61.12 1456.25,-55.12 1456.25,-55.12 1456.25,-36.62 1456.25,-36.62 1456.25,-30.62 1462.25,-24.62 1468.25,-24.62 1468.25,-24.62 1587.75,-24.62 1587.75,-24.62 1593.75,-24.62 1599.75,-30.62 1599.75,-36.62 1599.75,-36.62 1599.75,-55.12 1599.75,-55.12 1599.75,-61.12 1593.75,-67.12 1587.75,-67.12"/>
<text text-anchor="middle" x="1528" y="-49.83" font-family="Times,serif" font-size="14.00" fill="#e5e7eb">PredictiveAdvisor</text>
<text text-anchor="middle" x="1528" y="-32.58" font-family="Times,serif" font-size="14.00" fill="#e5e7eb">(Ranker / Triager)</text>
</g>
<!-- engine&#45;&gt;advisor -->
<g id="edge8" class="edge">
<title>engine&#45;&gt;advisor</title>
<path fill="none" stroke="#6b7280" d="M423.21,-35.62C423.21,-35.62 1446.26,-35.62 1446.26,-35.62"/>
<polygon fill="#6b7280" stroke="#6b7280" points="1446.26,-38.43 1454.26,-35.63 1446.26,-32.83 1446.26,-38.43"/>
<text text-anchor="middle" x="901.75" y="-51.08" font-family="Times,serif" font-size="14.00">top&#45;N deterministic</text>
<text text-anchor="middle" x="901.75" y="-33.83" font-family="Times,serif" font-size="14.00">candidates</text>
</g>
<!-- apexlab -->
<g id="node5" class="node">
<title>apexlab</title>
<path fill="#0b1220" stroke="#4b5563" stroke-width="1.2" d="M783,-112.12C783,-112.12 683,-112.12 683,-112.12 677,-112.12 671,-106.12 671,-100.12 671,-100.12 671,-81.62 671,-81.62 671,-75.62 677,-69.62 683,-69.62 683,-69.62 783,-69.62 783,-69.62 789,-69.62 795,-75.62 795,-81.62 795,-81.62 795,-100.12 795,-100.12 795,-106.12 789,-112.12 783,-112.12"/>
<text text-anchor="middle" x="733" y="-94.83" font-family="Times,serif" font-size="14.00" fill="#e5e7eb">ApexLab v2</text>
<text text-anchor="middle" x="733" y="-77.58" font-family="Times,serif" font-size="14.00" fill="#e5e7eb">(Label Factory)</text>
</g>
<!-- labels&#45;&gt;apexlab -->
<g id="edge4" class="edge">
<title>labels&#45;&gt;apexlab</title>
<path fill="none" stroke="#6b7280" d="M634.49,-84.88C634.49,-84.88 661,-84.88 661,-84.88"/>
<polygon fill="#6b7280" stroke="#6b7280" points="661,-87.68 669,-84.88 661,-82.08 661,-87.68"/>
</g>
<!-- datasets -->
<g id="node6" class="node">
<title>datasets</title>
<path fill="#0b1220" stroke="#4b5563" stroke-width="1.2" d="M955.12,-125.12C955.12,-125.12 848.38,-125.12 848.38,-125.12 842.38,-125.12 836.38,-119.12 836.38,-113.12 836.38,-113.12 836.38,-94.62 836.38,-94.62 836.38,-88.62 842.38,-82.62 848.38,-82.62 848.38,-82.62 955.12,-82.62 955.12,-82.62 961.12,-82.62 967.12,-88.62 967.12,-94.62 967.12,-94.62 967.12,-113.12 967.12,-113.12 967.12,-119.12 961.12,-125.12 955.12,-125.12"/>
<text text-anchor="middle" x="901.75" y="-107.83" font-family="Times,serif" font-size="14.00" fill="#e5e7eb">Datasets</text>
<text text-anchor="middle" x="901.75" y="-90.58" font-family="Times,serif" font-size="14.00" fill="#e5e7eb">(Parquet/Arrow)</text>
</g>
<!-- apexlab&#45;&gt;datasets -->
<g id="edge5" class="edge">
<title>apexlab&#45;&gt;datasets</title>
<path fill="none" stroke="#6b7280" d="M795.36,-97.38C795.36,-97.38 826.46,-97.38 826.46,-97.38"/>
<polygon fill="#6b7280" stroke="#6b7280" points="826.46,-100.18 834.46,-97.38 826.46,-94.58 826.46,-100.18"/>
</g>
<!-- train -->
<g id="node7" class="node">
<title>train</title>
<path fill="#0b1220" stroke="#4b5563" stroke-width="1.2" d="M1103.25,-120.12C1103.25,-120.12 1020.5,-120.12 1020.5,-120.12 1014.5,-120.12 1008.5,-114.12 1008.5,-108.12 1008.5,-108.12 1008.5,-89.62 1008.5,-89.62 1008.5,-83.62 1014.5,-77.62 1020.5,-77.62 1020.5,-77.62 1103.25,-77.62 1103.25,-77.62 1109.25,-77.62 1115.25,-83.62 1115.25,-89.62 1115.25,-89.62 1115.25,-108.12 1115.25,-108.12 1115.25,-114.12 1109.25,-120.12 1103.25,-120.12"/>
<text text-anchor="middle" x="1061.88" y="-102.83" font-family="Times,serif" font-size="14.00" fill="#e5e7eb">Training</text>
<text text-anchor="middle" x="1061.88" y="-85.58" font-family="Times,serif" font-size="14.00" fill="#e5e7eb">ApexCore v2</text>
</g>
<!-- datasets&#45;&gt;train -->
<g id="edge6" class="edge">
<title>datasets&#45;&gt;train</title>
<path fill="none" stroke="#6b7280" d="M967.34,-101.38C967.34,-101.38 998.85,-101.38 998.85,-101.38"/>
<polygon fill="#6b7280" stroke="#6b7280" points="998.85,-104.18 1006.85,-101.38 998.85,-98.58 998.85,-104.18"/>
</g>
<!-- apexcore -->
<g id="node8" class="node">
<title>apexcore</title>
<path fill="#0b1220" stroke="#4b5563" stroke-width="1.2" d="M1310,-112.12C1310,-112.12 1164.25,-112.12 1164.25,-112.12 1158.25,-112.12 1152.25,-106.12 1152.25,-100.12 1152.25,-100.12 1152.25,-81.62 1152.25,-81.62 1152.25,-75.62 1158.25,-69.62 1164.25,-69.62 1164.25,-69.62 1310,-69.62 1310,-69.62 1316,-69.62 1322,-75.62 1322,-81.62 1322,-81.62 1322,-100.12 1322,-100.12 1322,-106.12 1316,-112.12 1310,-112.12"/>
<text text-anchor="middle" x="1237.12" y="-94.83" font-family="Times,serif" font-size="14.00" fill="#e5e7eb">ApexCore v2</text>
<text text-anchor="middle" x="1237.12" y="-77.58" font-family="Times,serif" font-size="14.00" fill="#e5e7eb">(Big/Mini/Ensembles)</text>
</g>
<!-- train&#45;&gt;apexcore -->
<g id="edge7" class="edge">
<title>train&#45;&gt;apexcore</title>
<path fill="none" stroke="#6b7280" d="M1115.41,-94.88C1115.41,-94.88 1142.44,-94.88 1142.44,-94.88"/>
<polygon fill="#6b7280" stroke="#6b7280" points="1142.44,-97.68 1150.44,-94.88 1142.44,-92.08 1142.44,-97.68"/>
</g>
<!-- apexcore&#45;&gt;advisor -->
<g id="edge9" class="edge">
<title>apexcore&#45;&gt;advisor</title>
<path fill="none" stroke="#6b7280" d="M1236.75,-69.27C1236.75,-65.3 1236.75,-62.38 1236.75,-62.38 1236.75,-62.38 1446.49,-62.38 1446.49,-62.38"/>
<polygon fill="#6b7280" stroke="#6b7280" points="1446.49,-65.18 1454.49,-62.38 1446.49,-59.58 1446.49,-65.18"/>
<text text-anchor="middle" x="1389.12" y="-74.83" font-family="Times,serif" font-size="14.00">model signals</text>
</g>
<!-- outputs -->
<g id="node10" class="node">
<title>outputs</title>
<path fill="#0b1220" stroke="#4b5563" stroke-width="1.2" d="M1778.75,-67.12C1778.75,-67.12 1648.75,-67.12 1648.75,-67.12 1642.75,-67.12 1636.75,-61.12 1636.75,-55.12 1636.75,-55.12 1636.75,-36.62 1636.75,-36.62 1636.75,-30.62 1642.75,-24.62 1648.75,-24.62 1648.75,-24.62 1778.75,-24.62 1778.75,-24.62 1784.75,-24.62 1790.75,-30.62 1790.75,-36.62 1790.75,-36.62 1790.75,-55.12 1790.75,-55.12 1790.75,-61.12 1784.75,-67.12 1778.75,-67.12"/>
<text text-anchor="middle" x="1713.75" y="-49.83" font-family="Times,serif" font-size="14.00" fill="#e5e7eb">Ranked Candidates</text>
<text text-anchor="middle" x="1713.75" y="-32.58" font-family="Times,serif" font-size="14.00" fill="#e5e7eb">+ Warnings</text>
</g>
<!-- advisor&#45;&gt;outputs -->
<g id="edge10" class="edge">
<title>advisor&#45;&gt;outputs</title>
<path fill="none" stroke="#6b7280" d="M1600.08,-45.88C1600.08,-45.88 1626.97,-45.88 1626.97,-45.88"/>
<polygon fill="#6b7280" stroke="#6b7280" points="1626.97,-48.68 1634.97,-45.88 1626.97,-43.08 1626.97,-48.68"/>
</g>
</g>
</svg>
