<?xml version="1.0" encoding="UTF-8" standalone="no"?>
<!DOCTYPE svg PUBLIC "-//W3C//DTD SVG 1.1//EN"
 "http://www.w3.org/Graphics/SVG/1.1/DTD/svg11.dtd">
<!-- Generated by graphviz version 12.2.1 (0)
 -->
<!-- Title: ApexLabV2_Flow Pages: 1 -->
<svg width="1641pt" height="134pt"
 viewBox="0.00 0.00 1641.25 133.50" xmlns="http://www.w3.org/2000/svg" xmlns:xlink="http://www.w3.org/1999/xlink">
<g id="graph0" class="graph" transform="scale(1 1) rotate(0) translate(4 129.5)">
<title>ApexLabV2_Flow</title>
<polygon fill="white" stroke="none" points="-4,4 -4,-129.5 1637.25,-129.5 1637.25,4 -4,4"/>
<!-- raw_data -->
<g id="node1" class="node">
<title>raw_data</title>
<path fill="#0b1220" stroke="#4b5563" stroke-width="1.2" d="M130.75,-67.5C130.75,-67.5 12,-67.5 12,-67.5 6,-67.5 0,-61.5 0,-55.5 0,-55.5 0,-37 0,-37 0,-31 6,-25 12,-25 12,-25 130.75,-25 130.75,-25 136.75,-25 142.75,-31 142.75,-37 142.75,-37 142.75,-55.5 142.75,-55.5 142.75,-61.5 136.75,-67.5 130.75,-67.5"/>
<text text-anchor="middle" x="71.38" y="-50.2" font-family="Times,serif" font-size="14.00" fill="#e5e7eb">Historical OHLCV</text>
<text text-anchor="middle" x="71.38" y="-32.95" font-family="Times,serif" font-size="14.00" fill="#e5e7eb">(from ApexFeed)</text>
</g>
<!-- windows -->
<g id="node2" class="node">
<title>windows</title>
<path fill="#0b1220" stroke="#4b5563" stroke-width="1.2" d="M297.75,-67.5C297.75,-67.5 191.75,-67.5 191.75,-67.5 185.75,-67.5 179.75,-61.5 179.75,-55.5 179.75,-55.5 179.75,-37 179.75,-37 179.75,-31 185.75,-25 191.75,-25 191.75,-25 297.75,-25 297.75,-25 303.75,-25 309.75,-31 309.75,-37 309.75,-37 309.75,-55.5 309.75,-55.5 309.75,-61.5 303.75,-67.5 297.75,-67.5"/>
<text text-anchor="middle" x="244.75" y="-50.2" font-family="Times,serif" font-size="14.00" fill="#e5e7eb">Window Builder</text>
<text text-anchor="middle" x="244.75" y="-32.95" font-family="Times,serif" font-size="14.00" fill="#e5e7eb">(100–300 bars)</text>
</g>
<!-- raw_data&#45;&gt;windows -->
<g id="edge1" class="edge">
<title>raw_data&#45;&gt;windows</title>
<path fill="none" stroke="#6b7280" d="M143.14,-46.25C143.14,-46.25 169.9,-46.25 169.9,-46.25"/>
<polygon fill="#6b7280" stroke="#6b7280" points="169.9,-49.05 177.9,-46.25 169.9,-43.45 169.9,-49.05"/>
</g>
<!-- engine -->
<g id="node3" class="node">
<title>engine</title>
<path fill="#0b1220" stroke="#4b5563" stroke-width="1.2" d="M543.25,-92.5C543.25,-92.5 461.25,-92.5 461.25,-92.5 455.25,-92.5 449.25,-86.5 449.25,-80.5 449.25,-80.5 449.25,-62 449.25,-62 449.25,-56 455.25,-50 461.25,-50 461.25,-50 543.25,-50 543.25,-50 549.25,-50 555.25,-56 555.25,-62 555.25,-62 555.25,-80.5 555.25,-80.5 555.25,-86.5 549.25,-92.5 543.25,-92.5"/>
<text text-anchor="middle" x="502.25" y="-75.2" font-family="Times,serif" font-size="14.00" fill="#e5e7eb">Apex Engine</text>
<text text-anchor="middle" x="502.25" y="-57.95" font-family="Times,serif" font-size="14.00" fill="#e5e7eb">(Teacher)</text>
</g>
<!-- windows&#45;&gt;engine -->
<g id="edge2" class="edge">
<title>windows&#45;&gt;engine</title>
<path fill="none" stroke="#6b7280" d="M310.06,-58.75C310.06,-58.75 439.63,-58.75 439.63,-58.75"/>
<polygon fill="#6b7280" stroke="#6b7280" points="439.63,-61.55 447.63,-58.75 439.63,-55.95 439.63,-61.55"/>
</g>
<!-- future -->
<g id="node5" class="node">
<title>future</title>
<path fill="#0b1220" stroke="#4b5563" stroke-width="1.2" d="M776,-42.5C776,-42.5 585.25,-42.5 585.25,-42.5 579.25,-42.5 573.25,-36.5 573.25,-30.5 573.25,-30.5 573.25,-12 573.25,-12 573.25,-6 579.25,0 585.25,0 585.25,0 776,0 776,0 782,0 788,-6 788,-12 788,-12 788,-30.5 788,-30.5 788,-36.5 782,-42.5 776,-42.5"/>
<text text-anchor="middle" x="680.62" y="-25.2" font-family="Times,serif" font-size="14.00" fill="#e5e7eb">Future Outcomes</text>
<text text-anchor="middle" x="680.62" y="-7.95" font-family="Times,serif" font-size="14.00" fill="#e5e7eb">(returns, drawdown, runup)</text>
</g>
<!-- windows&#45;&gt;future -->
<g id="edge4" class="edge">
<title>windows&#45;&gt;future</title>
<path fill="none" stroke="#6b7280" d="M310,-33.75C310,-33.75 563.47,-33.75 563.47,-33.75"/>
<polygon fill="#6b7280" stroke="#6b7280" points="563.47,-36.55 571.47,-33.75 563.47,-30.95 563.47,-36.55"/>
<text text-anchor="middle" x="379.5" y="-42.45" font-family="Times,serif" font-size="14.00">future window</text>
<text text-anchor="middle" x="379.5" y="-25.2" font-family="Times,serif" font-size="14.00">(t+N bars)</text>
</g>
<!-- labels -->
<g id="node4" class="node">
<title>labels</title>
<path fill="#0b1220" stroke="#4b5563" stroke-width="1.2" d="M1050,-92.5C1050,-92.5 818,-92.5 818,-92.5 812,-92.5 806,-86.5 806,-80.5 806,-80.5 806,-62 806,-62 806,-56 812,-50 818,-50 818,-50 1050,-50 1050,-50 1056,-50 1062,-56 1062,-62 1062,-62 1062,-80.5 1062,-80.5 1062,-86.5 1056,-92.5 1050,-92.5"/>
<text text-anchor="middle" x="934" y="-75.2" font-family="Times,serif" font-size="14.00" fill="#e5e7eb">Structural Labels</text>
<text text-anchor="middle" x="934" y="-57.95" font-family="Times,serif" font-size="14.00" fill="#e5e7eb">(QuantraScore, risk, regime, etc.)</text>
</g>
<!-- engine&#45;&gt;labels -->
<g id="edge3" class="edge">
<title>engine&#45;&gt;labels</title>
<path fill="none" stroke="#6b7280" d="M555.62,-71.25C555.62,-71.25 796.2,-71.25 796.2,-71.25"/>
<polygon fill="#6b7280" stroke="#6b7280" points="796.2,-74.05 804.2,-71.25 796.2,-68.45 796.2,-74.05"/>
</g>
<!-- quality -->
<g id="node6" class="node">
<title>quality</title>
<path fill="#0b1220" stroke="#4b5563" stroke-width="1.2" d="M1298.5,-75.5C1298.5,-75.5 1214.25,-75.5 1214.25,-75.5 1208.25,-75.5 1202.25,-69.5 1202.25,-63.5 1202.25,-63.5 1202.25,-45 1202.25,-45 1202.25,-39 1208.25,-33 1214.25,-33 1214.25,-33 1298.5,-33 1298.5,-33 1304.5,-33 1310.5,-39 1310.5,-45 1310.5,-45 1310.5,-63.5 1310.5,-63.5 1310.5,-69.5 1304.5,-75.5 1298.5,-75.5"/>
<text text-anchor="middle" x="1256.38" y="-58.2" font-family="Times,serif" font-size="14.00" fill="#e5e7eb">Quality Tiers</text>
<text text-anchor="middle" x="1256.38" y="-40.95" font-family="Times,serif" font-size="14.00" fill="#e5e7eb">(A+/A/B/C/D)</text>
</g>
<!-- labels&#45;&gt;quality -->
<g id="edge5" class="edge">
<title>labels&#45;&gt;quality</title>
<path fill="none" stroke="#6b7280" d="M1062.34,-62.75C1062.34,-62.75 1192.49,-62.75 1192.49,-62.75"/>
<polygon fill="#6b7280" stroke="#6b7280" points="1192.49,-65.55 1200.49,-62.75 1192.49,-59.95 1192.49,-65.55"/>
<text text-anchor="middle" x="1132.12" y="-75.45" font-family="Times,serif" font-size="14.00">combined</text>
<text text-anchor="middle" x="1132.12" y="-58.2" font-family="Times,serif" font-size="14.00">with outcomes</text>
</g>
<!-- dataset -->
<g id="node7" class="node">
<title>dataset</title>
<path fill="#0b1220" stroke="#4b5563" stroke-width="1.2" d="M1464,-125.5C1464,-125.5 1359.5,-125.5 1359.5,-125.5 1353.5,-125.5 1347.5,-119.5 1347.5,-113.5 1347.5,-113.5 1347.5,-95 1347.5,-95 1347.5,-89 1353.5,-83 1359.5,-83 1359.5,-83 1464,-83 1464,-83 1470,-83 1476,-89 1476,-95 1476,-95 1476,-113.5 1476,-113.5 1476,-119.5 1470,-125.5 1464,-125.5"/>
<text text-anchor="middle" x="1411.75" y="-108.2" font-family="Times,serif" font-size="14.00" fill="#e5e7eb">Dataset Builder</text>
<text text-anchor="middle" x="1411.75" y="-90.95" font-family="Times,serif" font-size="14.00" fill="#e5e7eb">(ApexLab v2)</text>
</g>
<!-- labels&#45;&gt;dataset -->
<g id="edge7" class="edge">
<title>labels&#45;&gt;dataset</title>
<path fill="none" stroke="#6b7280" d="M1062.34,-89.33C1062.34,-89.33 1337.72,-89.33 1337.72,-89.33"/>
<polygon fill="#6b7280" stroke="#6b7280" points="1337.72,-92.13 1345.72,-89.33 1337.72,-86.53 1337.72,-92.13"/>
</g>
<!-- future&#45;&gt;quality -->
<g id="edge6" class="edge">
<title>future&#45;&gt;quality</title>
<path fill="none" stroke="#6b7280" d="M788.24,-37.75C788.24,-37.75 1192.36,-37.75 1192.36,-37.75"/>
<polygon fill="#6b7280" stroke="#6b7280" points="1192.36,-40.55 1200.36,-37.75 1192.36,-34.95 1192.36,-40.55"/>
</g>
<!-- quality&#45;&gt;dataset -->
<g id="edge8" class="edge">
<title>quality&#45;&gt;dataset</title>
<path fill="none" stroke="#6b7280" d="M1256.25,-75.72C1256.25,-81.49 1256.25,-86.17 1256.25,-86.17 1256.25,-86.17 1337.64,-86.17 1337.64,-86.17"/>
<polygon fill="#6b7280" stroke="#6b7280" points="1337.64,-88.97 1345.64,-86.17 1337.64,-83.37 1337.64,-88.97"/>
</g>
<!-- parquet -->
<g id="node8" class="node">
<title>parquet</title>
<path fill="#0b1220" stroke="#4b5563" stroke-width="1.2" d="M1621.25,-125.5C1621.25,-125.5 1525,-125.5 1525,-125.5 1519,-125.5 1513,-119.5 1513,-113.5 1513,-113.5 1513,-95 1513,-95 1513,-89 1519,-83 1525,-83 1525,-83 1621.25,-83 1621.25,-83 1627.25,-83 1633.25,-89 1633.25,-95 1633.25,-95 1633.25,-113.5 1633.25,-113.5 1633.25,-119.5 1627.25,-125.5 1621.25,-125.5"/>
<text text-anchor="middle" x="1573.12" y="-108.2" font-family="Times,serif" font-size="14.00" fill="#e5e7eb">Parquet/Arrow</text>
<text text-anchor="middle" x="1573.12" y="-90.95" font-family="Times,serif" font-size="14.00" fill="#e5e7eb">Datasets</text>
</g>
<!-- dataset&#45;&gt;parquet -->
<g id="edge9" class="edge">
<title>dataset&#45;&gt;parquet</title>
<path fill="none" stroke="#6b7280" d="M1476.46,-104.25C1476.46,-104.25 1503.08,-104.25 1503.08,-104.25"/>
<polygon fill="#6b7280" stroke="#6b7280" points="1503.08,-107.05 1511.08,-104.25 1503.08,-101.45 1503.08,-107.05"/>
</g>
</g>
</svg>
