<?xml version="1.0" encoding="UTF-8" standalone="no"?>
<!DOCTYPE svg PUBLIC "-//W3C//DTD SVG 1.1//EN"
 "http://www.w3.org/Graphics/SVG/1.1/DTD/svg11.dtd">
<!-- Generated by graphviz version 12.2.1 (0)
 -->
<!-- Title: ApexCoreV2_Family Pages: 1 -->
<svg width="1494pt" height="109pt"
 viewBox="0.00 0.00 1493.75 108.50" xmlns="http://www.w3.org/2000/svg" xmlns:xlink="http://www.w3.org/1999/xlink">
<g id="graph0" class="graph" transform="scale(1 1) rotate(0) translate(4 104.5)">
<title>ApexCoreV2_Family</title>
<polygon fill="white" stroke="none" points="-4,4 -4,-104.5 1489.75,-104.5 1489.75,4 -4,4"/>
<!-- teacher -->
<g id="node1" class="node">
<title>teacher</title>
<path fill="#0b1220" stroke="#4b5563" stroke-width="1.2" d="M94,-42.5C94,-42.5 12,-42.5 12,-42.5 6,-42.5 0,-36.5 0,-30.5 0,-30.5 0,-12 0,-12 0,-6 6,0 12,0 12,0 94,0 94,0 100,0 106,-6 106,-12 106,-12 106,-30.5 106,-30.5 106,-36.5 100,-42.5 94,-42.5"/>
<text text-anchor="middle" x="53" y="-25.2" font-family="Times,serif" font-size="14.00" fill="#e5e7eb">Apex Engine</text>
<text text-anchor="middle" x="53" y="-7.95" font-family="Times,serif" font-size="14.00" fill="#e5e7eb">(Teacher)</text>
</g>
<!-- lab -->
<g id="node2" class="node">
<title>lab</title>
<path fill="#0b1220" stroke="#4b5563" stroke-width="1.2" d="M347,-42.5C347,-42.5 271.75,-42.5 271.75,-42.5 265.75,-42.5 259.75,-36.5 259.75,-30.5 259.75,-30.5 259.75,-12 259.75,-12 259.75,-6 265.75,0 271.75,0 271.75,0 347,0 347,0 353,0 359,-6 359,-12 359,-12 359,-30.5 359,-30.5 359,-36.5 353,-42.5 347,-42.5"/>
<text text-anchor="middle" x="309.38" y="-25.2" font-family="Times,serif" font-size="14.00" fill="#e5e7eb">ApexLab v2</text>
<text text-anchor="middle" x="309.38" y="-7.95" font-family="Times,serif" font-size="14.00" fill="#e5e7eb">(Datasets)</text>
</g>
<!-- teacher&#45;&gt;lab -->
<g id="edge1" class="edge">
<title>teacher&#45;&gt;lab</title>
<path fill="none" stroke="#6b7280" d="M106.43,-21.25C106.43,-21.25 249.98,-21.25 249.98,-21.25"/>
<polygon fill="#6b7280" stroke="#6b7280" points="249.98,-24.05 257.98,-21.25 249.98,-18.45 249.98,-24.05"/>
<text text-anchor="middle" x="182.88" y="-25.2" font-family="Times,serif" font-size="14.00">structural labels</text>
</g>
<!-- big -->
<g id="node3" class="node">
<title>big</title>
<path fill="#0b1220" stroke="#4b5563" stroke-width="1.2" d="M564,-42.5C564,-42.5 441.5,-42.5 441.5,-42.5 435.5,-42.5 429.5,-36.5 429.5,-30.5 429.5,-30.5 429.5,-12 429.5,-12 429.5,-6 435.5,0 441.5,0 441.5,0 564,0 564,0 570,0 576,-6 576,-12 576,-12 576,-30.5 576,-30.5 576,-36.5 570,-42.5 564,-42.5"/>
<text text-anchor="middle" x="502.75" y="-25.2" font-family="Times,serif" font-size="14.00" fill="#e5e7eb">ApexCore v2 Big</text>
<text text-anchor="middle" x="502.75" y="-7.95" font-family="Times,serif" font-size="14.00" fill="#e5e7eb">(Desktop / Server)</text>
</g>
<!-- lab&#45;&gt;big -->
<g id="edge2" class="edge">
<title>lab&#45;&gt;big</title>
<path fill="none" stroke="#6b7280" d="M359.43,-21.25C359.43,-21.25 419.7,-21.25 419.7,-21.25"/>
<polygon fill="#6b7280" stroke="#6b7280" points="419.7,-24.05 427.7,-21.25 419.7,-18.45 419.7,-24.05"/>
<text text-anchor="middle" x="394.25" y="-42.45" font-family="Times,serif" font-size="14.00">train</text>
<text text-anchor="middle" x="394.25" y="-25.2" font-family="Times,serif" font-size="14.00">Big</text>
</g>
<!-- mini -->
<g id="node4" class="node">
<title>mini</title>
<path fill="#0b1220" stroke="#4b5563" stroke-width="1.2" d="M785.5,-100.5C785.5,-100.5 664.5,-100.5 664.5,-100.5 658.5,-100.5 652.5,-94.5 652.5,-88.5 652.5,-88.5 652.5,-70 652.5,-70 652.5,-64 658.5,-58 664.5,-58 664.5,-58 785.5,-58 785.5,-58 791.5,-58 797.5,-64 797.5,-70 797.5,-70 797.5,-88.5 797.5,-88.5 797.5,-94.5 791.5,-100.5 785.5,-100.5"/>
<text text-anchor="middle" x="725" y="-83.2" font-family="Times,serif" font-size="14.00" fill="#e5e7eb">ApexCore v2 Mini</text>
<text text-anchor="middle" x="725" y="-65.95" font-family="Times,serif" font-size="14.00" fill="#e5e7eb">(Android / Mobile)</text>
</g>
<!-- big&#45;&gt;mini -->
<g id="edge3" class="edge">
<title>big&#45;&gt;mini</title>
<path fill="none" stroke="#6b7280" d="M576.48,-31.88C632.77,-31.88 700.75,-31.88 700.75,-31.88 700.75,-31.88 700.75,-47.99 700.75,-47.99"/>
<polygon fill="#6b7280" stroke="#6b7280" points="697.95,-47.99 700.75,-55.99 703.55,-47.99 697.95,-47.99"/>
<text text-anchor="middle" x="614.25" y="-79.45" font-family="Times,serif" font-size="14.00">distill</text>
<text text-anchor="middle" x="614.25" y="-62.2" font-family="Times,serif" font-size="14.00">Mini</text>
</g>
<!-- ensemble -->
<g id="node5" class="node">
<title>ensemble</title>
<path fill="#0b1220" stroke="#4b5563" stroke-width="1.2" d="M1092.5,-42.5C1092.5,-42.5 903.25,-42.5 903.25,-42.5 897.25,-42.5 891.25,-36.5 891.25,-30.5 891.25,-30.5 891.25,-12 891.25,-12 891.25,-6 897.25,0 903.25,0 903.25,0 1092.5,0 1092.5,0 1098.5,0 1104.5,-6 1104.5,-12 1104.5,-12 1104.5,-30.5 1104.5,-30.5 1104.5,-36.5 1098.5,-42.5 1092.5,-42.5"/>
<text text-anchor="middle" x="997.88" y="-25.2" font-family="Times,serif" font-size="14.00" fill="#e5e7eb">ApexCore v2 Ensemble</text>
<text text-anchor="middle" x="997.88" y="-7.95" font-family="Times,serif" font-size="14.00" fill="#e5e7eb">(N models + disagreement)</text>
</g>
<!-- big&#45;&gt;ensemble -->
<g id="edge4" class="edge">
<title>big&#45;&gt;ensemble</title>
<path fill="none" stroke="#6b7280" d="M576.34,-10.62C576.34,-10.62 881.37,-10.62 881.37,-10.62"/>
<polygon fill="#6b7280" stroke="#6b7280" points="881.37,-13.43 889.37,-10.63 881.37,-7.83 881.37,-13.43"/>
<text text-anchor="middle" x="725" y="-26.45" font-family="Times,serif" font-size="14.00">multi&#45;copy</text>
<text text-anchor="middle" x="725" y="-9.2" font-family="Times,serif" font-size="14.00">or variants</text>
</g>
<!-- mini&#45;&gt;ensemble -->
<g id="edge5" class="edge">
<title>mini&#45;&gt;ensemble</title>
<path fill="none" stroke="#6b7280" stroke-dasharray="1,5" d="M748.75,-57.65C748.75,-41.16 748.75,-21.25 748.75,-21.25 748.75,-21.25 881.26,-21.25 881.26,-21.25"/>
<polygon fill="#6b7280" stroke="#6b7280" points="881.26,-24.05 889.26,-21.25 881.26,-18.45 881.26,-24.05"/>
<text text-anchor="middle" x="844.38" y="-62.2" font-family="Times,serif" font-size="14.00">optional</text>
</g>
<!-- manifest -->
<g id="node6" class="node">
<title>manifest</title>
<path fill="#0b1220" stroke="#4b5563" stroke-width="1.2" d="M1473.75,-42.5C1473.75,-42.5 1265,-42.5 1265,-42.5 1259,-42.5 1253,-36.5 1253,-30.5 1253,-30.5 1253,-12 1253,-12 1253,-6 1259,0 1265,0 1265,0 1473.75,0 1473.75,0 1479.75,0 1485.75,-6 1485.75,-12 1485.75,-12 1485.75,-30.5 1485.75,-30.5 1485.75,-36.5 1479.75,-42.5 1473.75,-42.5"/>
<text text-anchor="middle" x="1369.38" y="-25.2" font-family="Times,serif" font-size="14.00" fill="#e5e7eb">Model Manifest</text>
<text text-anchor="middle" x="1369.38" y="-7.95" font-family="Times,serif" font-size="14.00" fill="#e5e7eb">(SHA256, metrics, thresholds)</text>
</g>
<!-- ensemble&#45;&gt;manifest -->
<g id="edge6" class="edge">
<title>ensemble&#45;&gt;manifest</title>
<path fill="none" stroke="#6b7280" d="M1104.83,-21.25C1104.83,-21.25 1243.26,-21.25 1243.26,-21.25"/>
<polygon fill="#6b7280" stroke="#6b7280" points="1243.26,-24.05 1251.26,-21.25 1243.26,-18.45 1243.26,-24.05"/>
<text text-anchor="middle" x="1178.75" y="-25.2" font-family="Times,serif" font-size="14.00">metrics, hashes</text>
</g>
</g>
</svg>
