<?xml version="1.0" encoding="UTF-8" standalone="no"?>
<!DOCTYPE svg PUBLIC "-//W3C//DTD SVG 1.1//EN"
 "http://www.w3.org/Graphics/SVG/1.1/DTD/svg11.dtd">
<!-- Generated by graphviz version 12.2.1 (0)
 -->
<!-- Title: PredictiveAdvisor_Safety Pages: 1 -->
<svg width="1380pt" height="230pt"
 viewBox="0.00 0.00 1379.50 229.75" xmlns="http://www.w3.org/2000/svg" xmlns:xlink="http://www.w3.org/1999/xlink">
<g id="graph0" class="graph" transform="scale(1 1) rotate(0) translate(4 225.75)">
<title>PredictiveAdvisor_Safety</title>
<polygon fill="white" stroke="none" points="-4,4 -4,-225.75 1375.5,-225.75 1375.5,4 -4,4"/>
<!-- engine -->
<g id="node1" class="node">
<title>engine</title>
<path fill="#0b1220" stroke="#4b5563" stroke-width="1.2" d="M180.25,-185.75C180.25,-185.75 12,-185.75 12,-185.75 6,-185.75 0,-179.75 0,-173.75 0,-173.75 0,-155.25 0,-155.25 0,-149.25 6,-143.25 12,-143.25 12,-143.25 180.25,-143.25 180.25,-143.25 186.25,-143.25 192.25,-149.25 192.25,-155.25 192.25,-155.25 192.25,-173.75 192.25,-173.75 192.25,-179.75 186.25,-185.75 180.25,-185.75"/>
<text text-anchor="middle" x="96.12" y="-168.45" font-family="Times,serif" font-size="14.00" fill="#e5e7eb">Apex Engine</text>
<text text-anchor="middle" x="96.12" y="-151.2" font-family="Times,serif" font-size="14.00" fill="#e5e7eb">(deterministic authority)</text>
</g>
<!-- candidates -->
<g id="node2" class="node">
<title>candidates</title>
<path fill="#0b1220" stroke="#4b5563" stroke-width="1.2" d="M429.75,-185.75C429.75,-185.75 241.25,-185.75 241.25,-185.75 235.25,-185.75 229.25,-179.75 229.25,-173.75 229.25,-173.75 229.25,-155.25 229.25,-155.25 229.25,-149.25 235.25,-143.25 241.25,-143.25 241.25,-143.25 429.75,-143.25 429.75,-143.25 435.75,-143.25 441.75,-149.25 441.75,-155.25 441.75,-155.25 441.75,-173.75 441.75,-173.75 441.75,-179.75 435.75,-185.75 429.75,-185.75"/>
<text text-anchor="middle" x="335.5" y="-168.45" font-family="Times,serif" font-size="14.00" fill="#e5e7eb">Top&#45;N Candidates</text>
<text text-anchor="middle" x="335.5" y="-151.2" font-family="Times,serif" font-size="14.00" fill="#e5e7eb">(from deterministic engine)</text>
</g>
<!-- engine&#45;&gt;candidates -->
<g id="edge1" class="edge">
<title>engine&#45;&gt;candidates</title>
<path fill="none" stroke="#6b7280" d="M192.45,-164.5C192.45,-164.5 219.26,-164.5 219.26,-164.5"/>
<polygon fill="#6b7280" stroke="#6b7280" points="219.26,-167.3 227.26,-164.5 219.26,-161.7 219.26,-167.3"/>
</g>
<!-- advisor -->
<g id="node4" class="node">
<title>advisor</title>
<path fill="#0b1220" stroke="#4b5563" stroke-width="1.2" d="M609.5,-185.75C609.5,-185.75 490.75,-185.75 490.75,-185.75 484.75,-185.75 478.75,-179.75 478.75,-173.75 478.75,-173.75 478.75,-155.25 478.75,-155.25 478.75,-149.25 484.75,-143.25 490.75,-143.25 490.75,-143.25 609.5,-143.25 609.5,-143.25 615.5,-143.25 621.5,-149.25 621.5,-155.25 621.5,-155.25 621.5,-173.75 621.5,-173.75 621.5,-179.75 615.5,-185.75 609.5,-185.75"/>
<text text-anchor="middle" x="550.12" y="-168.45" font-family="Times,serif" font-size="14.00" fill="#e5e7eb">PredictiveAdvisor</text>
<text text-anchor="middle" x="550.12" y="-151.2" font-family="Times,serif" font-size="14.00" fill="#e5e7eb">(Ranker Only)</text>
</g>
<!-- candidates&#45;&gt;advisor -->
<g id="edge2" class="edge">
<title>candidates&#45;&gt;advisor</title>
<path fill="none" stroke="#6b7280" d="M442.18,-164.5C442.18,-164.5 468.98,-164.5 468.98,-164.5"/>
<polygon fill="#6b7280" stroke="#6b7280" points="468.98,-167.3 476.98,-164.5 468.98,-161.7 468.98,-167.3"/>
</g>
<!-- apexcore -->
<g id="node3" class="node">
<title>apexcore</title>
<path fill="#0b1220" stroke="#4b5563" stroke-width="1.2" d="M960,-215.75C960,-215.75 877.25,-215.75 877.25,-215.75 871.25,-215.75 865.25,-209.75 865.25,-203.75 865.25,-203.75 865.25,-185.25 865.25,-185.25 865.25,-179.25 871.25,-173.25 877.25,-173.25 877.25,-173.25 960,-173.25 960,-173.25 966,-173.25 972,-179.25 972,-185.25 972,-185.25 972,-203.75 972,-203.75 972,-209.75 966,-215.75 960,-215.75"/>
<text text-anchor="middle" x="918.62" y="-198.45" font-family="Times,serif" font-size="14.00" fill="#e5e7eb">ApexCore v2</text>
<text text-anchor="middle" x="918.62" y="-181.2" font-family="Times,serif" font-size="14.00" fill="#e5e7eb">(Ensemble)</text>
</g>
<!-- apexcore&#45;&gt;advisor -->
<g id="edge4" class="edge">
<title>apexcore&#45;&gt;advisor</title>
<path fill="none" stroke="#6b7280" d="M865.04,-179.5C865.04,-179.5 631.33,-179.5 631.33,-179.5"/>
<polygon fill="#6b7280" stroke="#6b7280" points="631.33,-176.7 623.33,-179.5 631.33,-182.3 631.33,-176.7"/>
<text text-anchor="middle" x="694.62" y="-168.45" font-family="Times,serif" font-size="14.00">model outputs</text>
</g>
<!-- safety -->
<g id="node5" class="node">
<title>safety</title>
<path fill="#0b1220" stroke="#4b5563" stroke-width="1.2" d="M1057.5,-145.75C1057.5,-145.75 779.75,-145.75 779.75,-145.75 773.75,-145.75 767.75,-139.75 767.75,-133.75 767.75,-133.75 767.75,-115.25 767.75,-115.25 767.75,-109.25 773.75,-103.25 779.75,-103.25 779.75,-103.25 1057.5,-103.25 1057.5,-103.25 1063.5,-103.25 1069.5,-109.25 1069.5,-115.25 1069.5,-115.25 1069.5,-133.75 1069.5,-133.75 1069.5,-139.75 1063.5,-145.75 1057.5,-145.75"/>
<text text-anchor="middle" x="918.62" y="-128.45" font-family="Times,serif" font-size="14.00" fill="#e5e7eb">Safety Gates</text>
<text text-anchor="middle" x="918.62" y="-111.2" font-family="Times,serif" font-size="14.00" fill="#e5e7eb">(disagreement, avoid_trade, thresholds)</text>
</g>
<!-- advisor&#45;&gt;safety -->
<g id="edge5" class="edge">
<title>advisor&#45;&gt;safety</title>
<path fill="none" stroke="#6b7280" d="M621.86,-150.06C700.76,-150.06 816.5,-150.06 816.5,-150.06 816.5,-150.06 816.5,-149.66 816.5,-149.66"/>
<polygon fill="#6b7280" stroke="#6b7280" points="819.3,-155.58 816.5,-147.58 813.7,-155.58 819.3,-155.58"/>
<text text-anchor="middle" x="694.62" y="-128.45" font-family="Times,serif" font-size="14.00">proposed ranks</text>
</g>
<!-- final -->
<g id="node6" class="node">
<title>final</title>
<path fill="#0b1220" stroke="#4b5563" stroke-width="1.2" d="M1307,-154.38C1307,-154.38 1171,-154.38 1171,-154.38 1165,-154.38 1159,-148.38 1159,-142.38 1159,-142.38 1159,-106.62 1159,-106.62 1159,-100.62 1165,-94.62 1171,-94.62 1171,-94.62 1307,-94.62 1307,-94.62 1313,-94.62 1319,-100.62 1319,-106.62 1319,-106.62 1319,-142.38 1319,-142.38 1319,-148.38 1313,-154.38 1307,-154.38"/>
<text text-anchor="middle" x="1239" y="-137.07" font-family="Times,serif" font-size="14.00" fill="#e5e7eb">Final View</text>
<text text-anchor="middle" x="1239" y="-119.83" font-family="Times,serif" font-size="14.00" fill="#e5e7eb">(Ranked, annotated,</text>
<text text-anchor="middle" x="1239" y="-102.58" font-family="Times,serif" font-size="14.00" fill="#e5e7eb">research&#45;only)</text>
</g>
<!-- safety&#45;&gt;final -->
<g id="edge6" class="edge">
<title>safety&#45;&gt;final</title>
<path fill="none" stroke="#6b7280" d="M1069.9,-131.58C1069.9,-131.58 1149.06,-131.58 1149.06,-131.58"/>
<polygon fill="#6b7280" stroke="#6b7280" points="1149.06,-134.38 1157.06,-131.58 1149.06,-128.78 1149.06,-134.38"/>
</g>
<!-- invariants -->
<g id="node7" class="node">
<title>invariants</title>
<polygon fill="#111827" stroke="#4b5563" stroke-width="1.2" points="1365.5,-77 1106.5,-77 1106.5,0 1371.5,0 1371.5,-71 1365.5,-77"/>
<polyline fill="none" stroke="#4b5563" stroke-width="1.2" points="1365.5,-77 1365.5,-71"/>
<polyline fill="none" stroke="#4b5563" stroke-width="1.2" points="1371.5,-71 1365.5,-71"/>
<text text-anchor="middle" x="1239" y="-59.7" font-family="Times,serif" font-size="14.00" fill="#e5e7eb">Invariants:</text>
<text text-anchor="middle" x="1239" y="-42.45" font-family="Times,serif" font-size="14.00" fill="#e5e7eb">&#45; Engine &amp; Omega always override</text>
<text text-anchor="middle" x="1239" y="-25.2" font-family="Times,serif" font-size="14.00" fill="#e5e7eb">&#45; No direct &#39;buy/sell&#39;</text>
<text text-anchor="middle" x="1239" y="-7.95" font-family="Times,serif" font-size="14.00" fill="#e5e7eb">&#45; Ranker&#45;only hints</text>
</g>
<!-- safety&#45;&gt;invariants -->
<g id="edge7" class="edge">
<title>safety&#45;&gt;invariants</title>
<path fill="none" stroke="#6b7280" stroke-dasharray="1,5" d="M1069.78,-117.42C1105.03,-117.42 1132.5,-117.42 1132.5,-117.42 1132.5,-117.42 1132.5,-87.01 1132.5,-87.01"/>
<polygon fill="#6b7280" stroke="#6b7280" points="1135.3,-87.01 1132.5,-79.01 1129.7,-87.01 1135.3,-87.01"/>
</g>
</g>
</svg>
