<?xml version="1.0" encoding="UTF-8" standalone="no"?>
<!DOCTYPE svg PUBLIC "-//W3C//DTD SVG 1.1//EN"
 "http://www.w3.org/Graphics/SVG/1.1/DTD/svg11.dtd">
<!-- Generated by graphviz version 12.2.1 (0)
 -->
<!-- Title: Broker_Safety Pages: 1 -->
<svg width="1528pt" height="195pt"
 viewBox="0.00 0.00 1527.75 195.00" xmlns="http://www.w3.org/2000/svg" xmlns:xlink="http://www.w3.org/1999/xlink">
<g id="graph0" class="graph" transform="scale(1 1) rotate(0) translate(4 191)">
<title>Broker_Safety</title>
<polygon fill="white" stroke="none" points="-4,4 -4,-191 1523.75,-191 1523.75,4 -4,4"/>
<!-- research -->
<g id="node1" class="node">
<title>research</title>
<path fill="#0b1220" stroke="#4b5563" stroke-width="1.2" d="M114.25,-75.75C114.25,-75.75 12,-75.75 12,-75.75 6,-75.75 0,-69.75 0,-63.75 0,-63.75 0,-45.25 0,-45.25 0,-39.25 6,-33.25 12,-33.25 12,-33.25 114.25,-33.25 114.25,-33.25 120.25,-33.25 126.25,-39.25 126.25,-45.25 126.25,-45.25 126.25,-63.75 126.25,-63.75 126.25,-69.75 120.25,-75.75 114.25,-75.75"/>
<text text-anchor="middle" x="63.12" y="-58.45" font-family="Times,serif" font-size="14.00" fill="#e5e7eb">Research Mode</text>
<text text-anchor="middle" x="63.12" y="-41.2" font-family="Times,serif" font-size="14.00" fill="#e5e7eb">(default)</text>
</g>
<!-- engine -->
<g id="node2" class="node">
<title>engine</title>
<path fill="#0b1220" stroke="#4b5563" stroke-width="1.2" d="M355.5,-75.75C355.5,-75.75 175.25,-75.75 175.25,-75.75 169.25,-75.75 163.25,-69.75 163.25,-63.75 163.25,-63.75 163.25,-45.25 163.25,-45.25 163.25,-39.25 169.25,-33.25 175.25,-33.25 175.25,-33.25 355.5,-33.25 355.5,-33.25 361.5,-33.25 367.5,-39.25 367.5,-45.25 367.5,-45.25 367.5,-63.75 367.5,-63.75 367.5,-69.75 361.5,-75.75 355.5,-75.75"/>
<text text-anchor="middle" x="265.38" y="-58.45" font-family="Times,serif" font-size="14.00" fill="#e5e7eb">Apex Engine</text>
<text text-anchor="middle" x="265.38" y="-41.2" font-family="Times,serif" font-size="14.00" fill="#e5e7eb">(Research / Paper Signals)</text>
</g>
<!-- research&#45;&gt;engine -->
<g id="edge1" class="edge">
<title>research&#45;&gt;engine</title>
<path fill="none" stroke="#6b7280" d="M126.56,-54.5C126.56,-54.5 153.37,-54.5 153.37,-54.5"/>
<polygon fill="#6b7280" stroke="#6b7280" points="153.37,-57.3 161.37,-54.5 153.37,-51.7 153.37,-57.3"/>
</g>
<!-- risk -->
<g id="node3" class="node">
<title>risk</title>
<path fill="#0b1220" stroke="#4b5563" stroke-width="1.2" d="M624.25,-84.38C624.25,-84.38 486,-84.38 486,-84.38 480,-84.38 474,-78.38 474,-72.38 474,-72.38 474,-36.62 474,-36.62 474,-30.62 480,-24.62 486,-24.62 486,-24.62 624.25,-24.62 624.25,-24.62 630.25,-24.62 636.25,-30.62 636.25,-36.62 636.25,-36.62 636.25,-72.38 636.25,-72.38 636.25,-78.38 630.25,-84.38 624.25,-84.38"/>
<text text-anchor="middle" x="555.12" y="-67.08" font-family="Times,serif" font-size="14.00" fill="#e5e7eb">Risk Module</text>
<text text-anchor="middle" x="555.12" y="-49.83" font-family="Times,serif" font-size="14.00" fill="#e5e7eb">(max loss, exposure,</text>
<text text-anchor="middle" x="555.12" y="-32.58" font-family="Times,serif" font-size="14.00" fill="#e5e7eb">Ω2 kill&#45;switch)</text>
</g>
<!-- engine&#45;&gt;risk -->
<g id="edge2" class="edge">
<title>engine&#45;&gt;risk</title>
<path fill="none" stroke="#6b7280" d="M367.94,-54.5C367.94,-54.5 464.14,-54.5 464.14,-54.5"/>
<polygon fill="#6b7280" stroke="#6b7280" points="464.14,-57.3 472.14,-54.5 464.14,-51.7 464.14,-57.3"/>
<text text-anchor="middle" x="420.75" y="-75.7" font-family="Times,serif" font-size="14.00">simulated</text>
<text text-anchor="middle" x="420.75" y="-58.45" font-family="Times,serif" font-size="14.00">orders</text>
</g>
<!-- oms -->
<g id="node4" class="node">
<title>oms</title>
<path fill="#0b1220" stroke="#4b5563" stroke-width="1.2" d="M932.38,-137.75C932.38,-137.75 785.88,-137.75 785.88,-137.75 779.88,-137.75 773.88,-131.75 773.88,-125.75 773.88,-125.75 773.88,-107.25 773.88,-107.25 773.88,-101.25 779.88,-95.25 785.88,-95.25 785.88,-95.25 932.38,-95.25 932.38,-95.25 938.38,-95.25 944.38,-101.25 944.38,-107.25 944.38,-107.25 944.38,-125.75 944.38,-125.75 944.38,-131.75 938.38,-137.75 932.38,-137.75"/>
<text text-anchor="middle" x="859.12" y="-120.45" font-family="Times,serif" font-size="14.00" fill="#e5e7eb">OMS</text>
<text text-anchor="middle" x="859.12" y="-103.2" font-family="Times,serif" font-size="14.00" fill="#e5e7eb">(Paper/Live envelope)</text>
</g>
<!-- risk&#45;&gt;oms -->
<g id="edge3" class="edge">
<title>risk&#45;&gt;oms</title>
<path fill="none" stroke="#6b7280" d="M636.49,-80.69C726.43,-80.69 858.75,-80.69 858.75,-80.69 858.75,-80.69 858.75,-85.33 858.75,-85.33"/>
<polygon fill="#6b7280" stroke="#6b7280" points="855.95,-85.33 858.75,-93.33 861.55,-85.33 855.95,-85.33"/>
<text text-anchor="middle" x="694.75" y="-114.7" font-family="Times,serif" font-size="14.00">approved</text>
<text text-anchor="middle" x="694.75" y="-97.45" font-family="Times,serif" font-size="14.00">orders only</text>
</g>
<!-- safety -->
<g id="node8" class="node">
<title>safety</title>
<polygon fill="#111827" stroke="#4b5563" stroke-width="1.2" points="959,-77 753.25,-77 753.25,0 965,0 965,-71 959,-77"/>
<polyline fill="none" stroke="#4b5563" stroke-width="1.2" points="959,-77 959,-71"/>
<polyline fill="none" stroke="#4b5563" stroke-width="1.2" points="965,-71 959,-71"/>
<text text-anchor="middle" x="859.12" y="-59.7" font-family="Times,serif" font-size="14.00" fill="#e5e7eb">Defaults:</text>
<text text-anchor="middle" x="859.12" y="-42.45" font-family="Times,serif" font-size="14.00" fill="#e5e7eb">&#45; broker_mode = disabled</text>
<text text-anchor="middle" x="859.12" y="-25.2" font-family="Times,serif" font-size="14.00" fill="#e5e7eb">&#45; execution_enabled = false</text>
<text text-anchor="middle" x="859.12" y="-7.95" font-family="Times,serif" font-size="14.00" fill="#e5e7eb">&#45; paper&#45;only shipped</text>
</g>
<!-- risk&#45;&gt;safety -->
<g id="edge7" class="edge">
<title>risk&#45;&gt;safety</title>
<path fill="none" stroke="#6b7280" stroke-dasharray="1,5" d="M636.59,-50.81C636.59,-50.81 743.3,-50.81 743.3,-50.81"/>
<polygon fill="#6b7280" stroke="#6b7280" points="743.3,-53.61 751.3,-50.81 743.3,-48.01 743.3,-53.61"/>
</g>
<!-- broker -->
<g id="node5" class="node">
<title>broker</title>
<path fill="#0b1220" stroke="#4b5563" stroke-width="1.2" d="M1241.25,-173.75C1241.25,-173.75 1131.5,-173.75 1131.5,-173.75 1125.5,-173.75 1119.5,-167.75 1119.5,-161.75 1119.5,-161.75 1119.5,-143.25 1119.5,-143.25 1119.5,-137.25 1125.5,-131.25 1131.5,-131.25 1131.5,-131.25 1241.25,-131.25 1241.25,-131.25 1247.25,-131.25 1253.25,-137.25 1253.25,-143.25 1253.25,-143.25 1253.25,-161.75 1253.25,-161.75 1253.25,-167.75 1247.25,-173.75 1241.25,-173.75"/>
<text text-anchor="middle" x="1186.38" y="-156.45" font-family="Times,serif" font-size="14.00" fill="#e5e7eb">Broker APIs</text>
<text text-anchor="middle" x="1186.38" y="-139.2" font-family="Times,serif" font-size="14.00" fill="#e5e7eb">(IB, Alpaca, etc.)</text>
</g>
<!-- oms&#45;&gt;broker -->
<g id="edge5" class="edge">
<title>oms&#45;&gt;broker</title>
<path fill="none" stroke="#6b7280" d="M944.68,-122C1021.99,-122 1123.75,-122 1123.75,-122 1123.75,-122 1123.75,-122.9 1123.75,-122.9"/>
<polygon fill="#6b7280" stroke="#6b7280" points="1120.95,-121.47 1123.75,-129.47 1126.55,-121.47 1120.95,-121.47"/>
<text text-anchor="middle" x="1042.25" y="-145.45" font-family="Times,serif" font-size="14.00">when configured</text>
</g>
<!-- paper -->
<g id="node6" class="node">
<title>paper</title>
<path fill="#0b1220" stroke="#4b5563" stroke-width="1.2" d="M1233,-112.75C1233,-112.75 1139.75,-112.75 1139.75,-112.75 1133.75,-112.75 1127.75,-106.75 1127.75,-100.75 1127.75,-100.75 1127.75,-82.25 1127.75,-82.25 1127.75,-76.25 1133.75,-70.25 1139.75,-70.25 1139.75,-70.25 1233,-70.25 1233,-70.25 1239,-70.25 1245,-76.25 1245,-82.25 1245,-82.25 1245,-100.75 1245,-100.75 1245,-106.75 1239,-112.75 1233,-112.75"/>
<text text-anchor="middle" x="1186.38" y="-95.45" font-family="Times,serif" font-size="14.00" fill="#e5e7eb">Paper Trading</text>
<text text-anchor="middle" x="1186.38" y="-78.2" font-family="Times,serif" font-size="14.00" fill="#e5e7eb">(default)</text>
</g>
<!-- oms&#45;&gt;paper -->
<g id="edge4" class="edge">
<title>oms&#45;&gt;paper</title>
<path fill="none" stroke="#6b7280" d="M944.68,-104C944.68,-104 1117.86,-104 1117.86,-104"/>
<polygon fill="#6b7280" stroke="#6b7280" points="1117.86,-106.8 1125.86,-104 1117.86,-101.2 1117.86,-106.8"/>
<text text-anchor="middle" x="1042.25" y="-95.45" font-family="Times,serif" font-size="14.00">default route</text>
</g>
<!-- live -->
<g id="node7" class="node">
<title>live</title>
<path fill="#0b1220" stroke="#4b5563" stroke-width="1.2" d="M1507.75,-173.75C1507.75,-173.75 1398,-173.75 1398,-173.75 1392,-173.75 1386,-167.75 1386,-161.75 1386,-161.75 1386,-143.25 1386,-143.25 1386,-137.25 1392,-131.25 1398,-131.25 1398,-131.25 1507.75,-131.25 1507.75,-131.25 1513.75,-131.25 1519.75,-137.25 1519.75,-143.25 1519.75,-143.25 1519.75,-161.75 1519.75,-161.75 1519.75,-167.75 1513.75,-173.75 1507.75,-173.75"/>
<text text-anchor="middle" x="1452.88" y="-156.45" font-family="Times,serif" font-size="14.00" fill="#e5e7eb">Live Ready</text>
<text text-anchor="middle" x="1452.88" y="-139.2" font-family="Times,serif" font-size="14.00" fill="#e5e7eb">(explicit, locked)</text>
</g>
<!-- broker&#45;&gt;live -->
<g id="edge6" class="edge">
<title>broker&#45;&gt;live</title>
<path fill="none" stroke="#6b7280" d="M1253.62,-152.5C1253.62,-152.5 1376.13,-152.5 1376.13,-152.5"/>
<polygon fill="#6b7280" stroke="#6b7280" points="1376.13,-155.3 1384.13,-152.5 1376.13,-149.7 1376.13,-155.3"/>
<text text-anchor="middle" x="1319.62" y="-173.7" font-family="Times,serif" font-size="14.00">only with</text>
<text text-anchor="middle" x="1319.62" y="-156.45" font-family="Times,serif" font-size="14.00">explicit setup</text>
</g>
</g>
</svg>
