<?xml version="1.0" encoding="UTF-8" standalone="no"?>
<!DOCTYPE svg PUBLIC "-//W3C//DTD SVG 1.1//EN"
 "http://www.w3.org/Graphics/SVG/1.1/DTD/svg11.dtd">
<!-- Generated by graphviz version 12.2.1 (0)
 -->
<!-- Title: Determinism_Chain Pages: 1 -->
<svg width="1448pt" height="160pt"
 viewBox="0.00 0.00 1448.00 159.75" xmlns="http://www.w3.org/2000/svg" xmlns:xlink="http://www.w3.org/1999/xlink">
<g id="graph0" class="graph" transform="scale(1 1) rotate(0) translate(4 155.75)">
<title>Determinism_Chain</title>
<polygon fill="white" stroke="none" points="-4,4 -4,-155.75 1444,-155.75 1444,4 -4,4"/>
<!-- code -->
<g id="node1" class="node">
<title>code</title>
<path fill="#0b1220" stroke="#4b5563" stroke-width="1.2" d="M106.75,-151.75C106.75,-151.75 12,-151.75 12,-151.75 6,-151.75 0,-145.75 0,-139.75 0,-139.75 0,-121.25 0,-121.25 0,-115.25 6,-109.25 12,-109.25 12,-109.25 106.75,-109.25 106.75,-109.25 112.75,-109.25 118.75,-115.25 118.75,-121.25 118.75,-121.25 118.75,-139.75 118.75,-139.75 118.75,-145.75 112.75,-151.75 106.75,-151.75"/>
<text text-anchor="middle" x="59.38" y="-134.45" font-family="Times,serif" font-size="14.00" fill="#e5e7eb">Code + Config</text>
<text text-anchor="middle" x="59.38" y="-117.2" font-family="Times,serif" font-size="14.00" fill="#e5e7eb">(Versioned)</text>
</g>
<!-- hashes -->
<g id="node2" class="node">
<title>hashes</title>
<path fill="#0b1220" stroke="#4b5563" stroke-width="1.2" d="M333,-151.75C333,-151.75 167.75,-151.75 167.75,-151.75 161.75,-151.75 155.75,-145.75 155.75,-139.75 155.75,-139.75 155.75,-121.25 155.75,-121.25 155.75,-115.25 161.75,-109.25 167.75,-109.25 167.75,-109.25 333,-109.25 333,-109.25 339,-109.25 345,-115.25 345,-121.25 345,-121.25 345,-139.75 345,-139.75 345,-145.75 339,-151.75 333,-151.75"/>
<text text-anchor="middle" x="250.38" y="-134.45" font-family="Times,serif" font-size="14.00" fill="#e5e7eb">PROVENANCE.manifest</text>
<text text-anchor="middle" x="250.38" y="-117.2" font-family="Times,serif" font-size="14.00" fill="#e5e7eb">(SHA256 for files)</text>
</g>
<!-- code&#45;&gt;hashes -->
<g id="edge1" class="edge">
<title>code&#45;&gt;hashes</title>
<path fill="none" stroke="#6b7280" d="M119.02,-130.5C119.02,-130.5 145.95,-130.5 145.95,-130.5"/>
<polygon fill="#6b7280" stroke="#6b7280" points="145.95,-133.3 153.95,-130.5 145.95,-127.7 145.95,-133.3"/>
</g>
<!-- engine -->
<g id="node3" class="node">
<title>engine</title>
<path fill="#0b1220" stroke="#4b5563" stroke-width="1.2" d="M600.25,-98.75C600.25,-98.75 500.25,-98.75 500.25,-98.75 494.25,-98.75 488.25,-92.75 488.25,-86.75 488.25,-86.75 488.25,-68.25 488.25,-68.25 488.25,-62.25 494.25,-56.25 500.25,-56.25 500.25,-56.25 600.25,-56.25 600.25,-56.25 606.25,-56.25 612.25,-62.25 612.25,-68.25 612.25,-68.25 612.25,-86.75 612.25,-86.75 612.25,-92.75 606.25,-98.75 600.25,-98.75"/>
<text text-anchor="middle" x="550.25" y="-81.45" font-family="Times,serif" font-size="14.00" fill="#e5e7eb">Apex Engine</text>
<text text-anchor="middle" x="550.25" y="-64.2" font-family="Times,serif" font-size="14.00" fill="#e5e7eb">(Deterministic)</text>
</g>
<!-- hashes&#45;&gt;engine -->
<g id="edge2" class="edge">
<title>hashes&#45;&gt;engine</title>
<path fill="none" stroke="#6b7280" d="M330,-109.07C330,-101.61 330,-95.06 330,-95.06 330,-95.06 478.5,-95.06 478.5,-95.06"/>
<polygon fill="#6b7280" stroke="#6b7280" points="478.5,-97.86 486.5,-95.06 478.5,-92.26 478.5,-97.86"/>
<text text-anchor="middle" x="416.62" y="-116.45" font-family="Times,serif" font-size="14.00">integrity check</text>
</g>
<!-- outputs -->
<g id="node5" class="node">
<title>outputs</title>
<path fill="#0b1220" stroke="#4b5563" stroke-width="1.2" d="M762,-107.38C762,-107.38 661.25,-107.38 661.25,-107.38 655.25,-107.38 649.25,-101.38 649.25,-95.38 649.25,-95.38 649.25,-59.62 649.25,-59.62 649.25,-53.62 655.25,-47.62 661.25,-47.62 661.25,-47.62 762,-47.62 762,-47.62 768,-47.62 774,-53.62 774,-59.62 774,-59.62 774,-95.38 774,-95.38 774,-101.38 768,-107.38 762,-107.38"/>
<text text-anchor="middle" x="711.62" y="-90.08" font-family="Times,serif" font-size="14.00" fill="#e5e7eb">Outputs</text>
<text text-anchor="middle" x="711.62" y="-72.83" font-family="Times,serif" font-size="14.00" fill="#e5e7eb">(QuantraScore,</text>
<text text-anchor="middle" x="711.62" y="-55.58" font-family="Times,serif" font-size="14.00" fill="#e5e7eb">labels, logs)</text>
</g>
<!-- engine&#45;&gt;outputs -->
<g id="edge4" class="edge">
<title>engine&#45;&gt;outputs</title>
<path fill="none" stroke="#6b7280" d="M612.64,-77.5C612.64,-77.5 639.35,-77.5 639.35,-77.5"/>
<polygon fill="#6b7280" stroke="#6b7280" points="639.35,-80.3 647.35,-77.5 639.35,-74.7 639.35,-80.3"/>
</g>
<!-- inputs -->
<g id="node4" class="node">
<title>inputs</title>
<path fill="#0b1220" stroke="#4b5563" stroke-width="1.2" d="M302.25,-91.38C302.25,-91.38 198.5,-91.38 198.5,-91.38 192.5,-91.38 186.5,-85.38 186.5,-79.38 186.5,-79.38 186.5,-43.62 186.5,-43.62 186.5,-37.62 192.5,-31.62 198.5,-31.62 198.5,-31.62 302.25,-31.62 302.25,-31.62 308.25,-31.62 314.25,-37.62 314.25,-43.62 314.25,-43.62 314.25,-79.38 314.25,-79.38 314.25,-85.38 308.25,-91.38 302.25,-91.38"/>
<text text-anchor="middle" x="250.38" y="-74.08" font-family="Times,serif" font-size="14.00" fill="#e5e7eb">Inputs</text>
<text text-anchor="middle" x="250.38" y="-56.83" font-family="Times,serif" font-size="14.00" fill="#e5e7eb">(data, universe,</text>
<text text-anchor="middle" x="250.38" y="-39.58" font-family="Times,serif" font-size="14.00" fill="#e5e7eb">engine config)</text>
</g>
<!-- inputs&#45;&gt;engine -->
<g id="edge3" class="edge">
<title>inputs&#45;&gt;engine</title>
<path fill="none" stroke="#6b7280" d="M314.71,-73.81C314.71,-73.81 478.31,-73.81 478.31,-73.81"/>
<polygon fill="#6b7280" stroke="#6b7280" points="478.31,-76.61 486.31,-73.81 478.31,-71.01 478.31,-76.61"/>
</g>
<!-- proof -->
<g id="node6" class="node">
<title>proof</title>
<path fill="#0b1220" stroke="#4b5563" stroke-width="1.2" d="M926,-98.75C926,-98.75 823,-98.75 823,-98.75 817,-98.75 811,-92.75 811,-86.75 811,-86.75 811,-68.25 811,-68.25 811,-62.25 817,-56.25 823,-56.25 823,-56.25 926,-56.25 926,-56.25 932,-56.25 938,-62.25 938,-68.25 938,-68.25 938,-86.75 938,-86.75 938,-92.75 932,-98.75 926,-98.75"/>
<text text-anchor="middle" x="874.5" y="-81.45" font-family="Times,serif" font-size="14.00" fill="#e5e7eb">Proof Logs</text>
<text text-anchor="middle" x="874.5" y="-64.2" font-family="Times,serif" font-size="14.00" fill="#e5e7eb">(JSONL, traces)</text>
</g>
<!-- outputs&#45;&gt;proof -->
<g id="edge5" class="edge">
<title>outputs&#45;&gt;proof</title>
<path fill="none" stroke="#6b7280" d="M774.13,-77.5C774.13,-77.5 801.03,-77.5 801.03,-77.5"/>
<polygon fill="#6b7280" stroke="#6b7280" points="801.03,-80.3 809.03,-77.5 801.03,-74.7 801.03,-80.3"/>
</g>
<!-- replay -->
<g id="node7" class="node">
<title>replay</title>
<path fill="#0b1220" stroke="#4b5563" stroke-width="1.2" d="M1194.25,-137.75C1194.25,-137.75 1041.75,-137.75 1041.75,-137.75 1035.75,-137.75 1029.75,-131.75 1029.75,-125.75 1029.75,-125.75 1029.75,-107.25 1029.75,-107.25 1029.75,-101.25 1035.75,-95.25 1041.75,-95.25 1041.75,-95.25 1194.25,-95.25 1194.25,-95.25 1200.25,-95.25 1206.25,-101.25 1206.25,-107.25 1206.25,-107.25 1206.25,-125.75 1206.25,-125.75 1206.25,-131.75 1200.25,-137.75 1194.25,-137.75"/>
<text text-anchor="middle" x="1118" y="-120.45" font-family="Times,serif" font-size="14.00" fill="#e5e7eb">Replay Engine</text>
<text text-anchor="middle" x="1118" y="-103.2" font-family="Times,serif" font-size="14.00" fill="#e5e7eb">(Deterministic Re&#45;run)</text>
</g>
<!-- proof&#45;&gt;replay -->
<g id="edge6" class="edge">
<title>proof&#45;&gt;replay</title>
<path fill="none" stroke="#6b7280" d="M874,-99.07C874,-101.46 874,-103.06 874,-103.06 874,-103.06 1020.05,-103.06 1020.05,-103.06"/>
<polygon fill="#6b7280" stroke="#6b7280" points="1020.05,-105.86 1028.05,-103.06 1020.05,-100.26 1020.05,-105.86"/>
</g>
<!-- guarantees -->
<g id="node9" class="node">
<title>guarantees</title>
<polygon fill="#111827" stroke="#4b5563" stroke-width="1.2" points="1255,-77 975,-77 975,0 1261,0 1261,-71 1255,-77"/>
<polyline fill="none" stroke="#4b5563" stroke-width="1.2" points="1255,-77 1255,-71"/>
<polyline fill="none" stroke="#4b5563" stroke-width="1.2" points="1261,-71 1255,-71"/>
<text text-anchor="middle" x="1118" y="-59.7" font-family="Times,serif" font-size="14.00" fill="#e5e7eb">Guarantees:</text>
<text text-anchor="middle" x="1118" y="-42.45" font-family="Times,serif" font-size="14.00" fill="#e5e7eb">&#45; Same code + inputs → same outputs</text>
<text text-anchor="middle" x="1118" y="-25.2" font-family="Times,serif" font-size="14.00" fill="#e5e7eb">&#45; Hash&#45;verified builds</text>
<text text-anchor="middle" x="1118" y="-7.95" font-family="Times,serif" font-size="14.00" fill="#e5e7eb">&#45; Full trace per decision</text>
</g>
<!-- proof&#45;&gt;guarantees -->
<g id="edge8" class="edge">
<title>proof&#45;&gt;guarantees</title>
<path fill="none" stroke="#6b7280" stroke-dasharray="1,5" d="M938.48,-66.62C938.48,-66.62 965.28,-66.62 965.28,-66.62"/>
<polygon fill="#6b7280" stroke="#6b7280" points="965.28,-69.43 973.28,-66.63 965.28,-63.83 965.28,-69.43"/>
</g>
<!-- auditor -->
<g id="node8" class="node">
<title>auditor</title>
<path fill="#0b1220" stroke="#4b5563" stroke-width="1.2" d="M1428,-137.75C1428,-137.75 1310,-137.75 1310,-137.75 1304,-137.75 1298,-131.75 1298,-125.75 1298,-125.75 1298,-107.25 1298,-107.25 1298,-101.25 1304,-95.25 1310,-95.25 1310,-95.25 1428,-95.25 1428,-95.25 1434,-95.25 1440,-101.25 1440,-107.25 1440,-107.25 1440,-125.75 1440,-125.75 1440,-131.75 1434,-137.75 1428,-137.75"/>
<text text-anchor="middle" x="1369" y="-120.45" font-family="Times,serif" font-size="14.00" fill="#e5e7eb">Auditor / Investor</text>
<text text-anchor="middle" x="1369" y="-103.2" font-family="Times,serif" font-size="14.00" fill="#e5e7eb">(Reads proof)</text>
</g>
<!-- replay&#45;&gt;auditor -->
<g id="edge7" class="edge">
<title>replay&#45;&gt;auditor</title>
<path fill="none" stroke="#6b7280" d="M1206.49,-116.5C1206.49,-116.5 1288.31,-116.5 1288.31,-116.5"/>
<polygon fill="#6b7280" stroke="#6b7280" points="1288.31,-119.3 1296.31,-116.5 1288.31,-113.7 1288.31,-119.3"/>
</g>
</g>
</svg>
